<svg width="62" height="62" viewBox="0 0 62 62" fill="none" xmlns="http://www.w3.org/2000/svg">
<g clip-path="url(#clip0_147_5)">
<circle cx="4" cy="27.7368" r="2" fill="#D3D3D3" fill-opacity="0.5"/>
<circle cx="9.5" cy="31.2368" r="3.5" fill="#D3D3D3" fill-opacity="0.5"/>
<path d="M39 57.7368C39 57.3926 39.3085 55.2158 39.7265 52.4487M41.5 41.2368C41.1448 43.3682 40.6096 46.3886 40.1566 49.2368" stroke="#333333"/>
<path d="M43.5 40.7366C41.5182 41.0008 37.2114 40.5948 35.1125 37.6255C33.9384 35.9645 34.9911 33.3239 36.8212 34.2116C37.3645 34.4751 37.9388 34.9511 38.5 35.7368C41 39.2368 44.078 36.5804 45 34.7366C46.4098 31.9172 44.7279 28.6558 39.9542 29.5191C39.3733 29.6242 38.7674 29.4265 38.4132 28.9543V28.9543C37.9173 28.2931 38.0849 27.3551 38.8447 27.0298C41.3518 25.9563 46.0721 25.0717 48.5 30.7367" stroke="#333333" stroke-linecap="round"/>
<path d="M47.5 28.7368L50.0651 22.7515C50.3289 22.1359 50.9342 21.7368 51.604 21.7368V21.7368C52.1638 21.7368 52.6865 22.0166 52.997 22.4824L53.014 22.5079C53.3196 22.9662 53.3888 23.5425 53.2006 24.0601L49.5 34.2368" stroke="#333333" stroke-linecap="round"/>
<path d="M51 30.2368L56.8499 26.6369C57.2619 26.3833 57.7652 26.3252 58.2242 26.4782L58.382 26.5308C58.7711 26.6605 59.0763 26.9658 59.206 27.3548V27.3548C59.3819 27.8825 59.2033 28.4637 58.7614 28.8016L51 34.7368" stroke="#333333" stroke-linecap="round"/>
<path d="M52.5 33.7368L58.9784 32.4411C59.5965 32.3175 60.2282 32.5792 60.5779 33.1037V33.1037C60.8442 33.5032 60.909 34.0098 60.7572 34.4652V34.4652C60.597 34.9457 60.2146 35.3276 59.7319 35.4812L49.5 38.7368L50.9114 45.3905M53 55.2368L52.2045 51.4867" stroke="#333333"/>
<path d="M10.5 50.2368C11.0477 49.6537 17.9824 39.2086 20.7982 34.9937" stroke="#333333"/>
<path d="M19.6827 33.2596C20.9462 34.809 24.3634 37.4617 27.9261 36.7344C29.919 36.3276 30.9597 33.6821 29.018 33.0762C28.4416 32.8963 27.6971 32.8501 26.7501 33.0385C22.5317 33.878 22.1069 29.8345 22.6972 27.8593C23.5999 24.8391 27.0587 23.6135 29.9471 27.511C30.2986 27.9853 30.8755 28.256 31.4571 28.1543V28.1543C32.2712 28.0119 32.7912 27.2134 32.4601 26.4562C31.3677 23.9573 28.5328 20.0808 22.8846 22.5477" stroke="#333333" stroke-linecap="round"/>
<path d="M24.9829 21.7746L27.211 15.6559C27.4402 15.0266 27.2722 14.3213 26.7841 13.8627V13.8627C26.3761 13.4795 25.8035 13.3255 25.2583 13.4524L25.2284 13.4594C24.6919 13.5842 24.2469 13.9569 24.0297 14.463L19.7596 24.4142" stroke="#333333" stroke-linecap="round"/>
<path d="M21.4047 20.4718L19.6056 13.8428C19.4788 13.3759 19.1518 12.989 18.7125 12.7862L18.5614 12.7165C18.1891 12.5447 17.7576 12.5582 17.3967 12.753V12.753C16.9072 13.0172 16.6395 13.5631 16.7302 14.1119L18.3239 23.7517" stroke="#333333" stroke-linecap="round"/>
<path d="M17.9153 21.9958L14.0804 16.6161C13.7145 16.1027 13.0749 15.8609 12.4609 16.0039V16.0039C11.9933 16.1127 11.5993 16.4376 11.3981 16.8735V16.8735C11.1859 17.3334 11.2032 17.8736 11.4498 18.316L16.6787 27.6941L2.83106 37.3244" stroke="#333333"/>
<rect x="1.63379" y="36.0665" width="1" height="9.09682" transform="rotate(-30 1.63379 36.0665)" fill="#333333"/>
<rect x="55.5999" y="54.7368" width="1" height="19.8653" transform="rotate(80.6207 55.5999 54.7368)" fill="#333333"/>
<path d="M25.5 36.7368V36.5909C25.5 35.5669 26.3475 34.7368 27.3715 34.7368V34.7368C28.0567 34.7368 28.6936 35.124 29 35.7368V35.7368" stroke="#333333"/>
<path d="M38.5 38.2368L37.5 37.2368L37.3028 37.0396C36.5322 36.269 35.2137 36.6682 35 37.7368V37.7368" stroke="#333333"/>
<path d="M29 24.7368L30 25.7368L30.1853 25.9221C30.8058 26.5426 31.8591 26.3231 32.18 25.5063V25.5063" stroke="#333333"/>
<path d="M39.5 27.2368L39.5408 27.3185C39.8119 27.8607 40.4124 28.1543 41.0068 28.0355V28.0355C41.7997 27.8769 42.2742 27.0593 42.0185 26.2922L42 26.2368" stroke="#333333"/>
<path d="M17.5 30.2368L18.5 31.7368" stroke="#333333" stroke-linecap="round"/>
<circle cx="50" cy="48.7368" r="3.5" stroke="#333333"/>
<path d="M46 48.2368L39.3139 49.574C38.8106 49.6747 38.3998 50.0373 38.2375 50.5242V50.5242C37.8999 51.537 38.7508 52.5492 39.8065 52.3908L47.5 51.2368" stroke="#333333" stroke-linecap="round"/>
<path d="M50 47.7368V48.7368H52" stroke="#333333" stroke-linecap="round"/>
<path d="M43.4672 4.29825C41.8838 8.54005 45.0705 12.4626 47.4948 13.0729" stroke="#F2994A" stroke-linecap="round"/>
<path d="M43.4674 4.29819C42.466 8.71375 38.1765 10.402 35.8143 9.58316" stroke="#F2994A" stroke-linecap="round"/>
<path d="M38.9835 18.7604C42.0761 11.3654 38.2597 9.94596 35.7709 9.70902" stroke="#F2994A" stroke-linecap="round"/>
<path d="M39.0271 18.6346C41.6473 11.0758 45.2513 12.0356 47.4625 13.2019" stroke="#F2994A" stroke-linecap="round"/>
<path d="M31.0661 8.04768C30.6301 9.17991 29.1381 9.25218 28.3546 8.80703" stroke="#E0E0E0" stroke-linecap="round"/>
<path d="M28.8756 12.0053C30.269 9.87448 29.1591 9.21053 28.3955 8.99265" stroke="#E0E0E0" stroke-linecap="round"/>
<path d="M31.1125 7.74782C30.3728 8.98111 31.1413 10.3904 31.8632 10.7212" stroke="#E0E0E0" stroke-linecap="round"/>
<path d="M28.8969 11.9687C30.1522 9.75939 31.2223 10.2675 31.8455 10.7596" stroke="#E0E0E0" stroke-linecap="round"/>
<path d="M46.1086 20.371C45.6725 21.5033 44.1806 21.5755 43.3971 21.1304" stroke="#E0E0E0" stroke-linecap="round"/>
<path d="M43.9181 24.3287C45.3115 22.1978 44.2015 21.5339 43.4379 21.316" stroke="#E0E0E0" stroke-linecap="round"/>
<path d="M46.155 20.0712C45.4152 21.3045 46.1837 22.7138 46.9056 23.0446" stroke="#E0E0E0" stroke-linecap="round"/>
<path d="M43.9393 24.2921C45.1947 22.0828 46.2648 22.5909 46.888 23.083" stroke="#E0E0E0" stroke-linecap="round"/>
</g>
<defs>
<clipPath id="clip0_147_5">
<rect width="62" height="62" fill="white"/>
</clipPath>
</defs>
</svg>
