<svg width="48" height="48" viewBox="0 0 48 48" fill="none" xmlns="http://www.w3.org/2000/svg">
<path d="M4 9.5H44C44.2761 9.5 44.5 9.72386 44.5 10V19C44.5 21.4853 42.4853 23.5 40 23.5H8C5.51472 23.5 3.5 21.4853 3.5 19V10C3.5 9.72386 3.72386 9.5 4 9.5Z" stroke="#333333" stroke-width="3"/>
<path d="M11 24V20C11 18.8954 11.8954 18 13 18H35C36.1046 18 37 18.8954 37 20V24" stroke="#333333" stroke-width="3"/>
<path fill-rule="evenodd" clip-rule="evenodd" d="M6.01549 36.0652C8.61816 34.7639 10.4041 32.3049 10.8758 29.4933C11.0129 28.6763 11.6717 28 12.5001 28V28C13.3285 28 14.0098 28.6744 13.9068 29.4964C13.4117 33.4479 10.9772 36.9385 7.35713 38.7485L5.1709 39.8416C4.42994 40.2121 3.52893 39.9118 3.15844 39.1708C2.78796 38.4299 3.0883 37.5288 3.82926 37.1584L6.01549 36.0652Z" fill="#333333"/>
<path fill-rule="evenodd" clip-rule="evenodd" d="M43.4845 36.0652C40.8818 34.7639 39.0959 32.3049 38.6242 29.4933C38.4871 28.6763 37.8283 28 36.9999 28V28C36.1715 28 35.4902 28.6744 35.5932 29.4964C36.0883 33.4479 38.5228 36.9385 42.1429 38.7485L44.3291 39.8416C45.0701 40.2121 45.9711 39.9118 46.3416 39.1708C46.712 38.4299 46.4117 37.5288 45.6707 37.1584L43.4845 36.0652Z" fill="#333333"/>
<rect x="18" y="28" width="3" height="12" rx="1.5" fill="#333333"/>
<rect x="27" y="28" width="3" height="12" rx="1.5" fill="#333333"/>
</svg>
