<svg width="48" height="48" viewBox="0 0 48 48" fill="none" xmlns="http://www.w3.org/2000/svg">
<path d="M36.5 16V42C36.5 43.3807 35.3807 44.5 34 44.5H14C12.6193 44.5 11.5 43.3807 11.5 42V16C11.5 9.09644 17.0964 3.5 24 3.5C30.9036 3.5 36.5 9.09644 36.5 16Z" stroke="#333333" stroke-width="3"/>
<path d="M10 27V27C7.23858 27 5 29.2386 5 32V36.4586C5 37.9251 6.06024 39.1767 7.5068 39.4178L11 40" stroke="#333333" stroke-width="3"/>
<path d="M38 27V27C40.7614 27 43 29.2386 43 32V36.4586C43 37.9251 41.9398 39.1767 40.4932 39.4178L37 40" stroke="#333333" stroke-width="3"/>
<rect x="16" y="29" width="16" height="3" rx="1.5" fill="#333333"/>
</svg>
