<svg width="24" height="24" viewBox="0 0 24 24" fill="none" xmlns="http://www.w3.org/2000/svg">
<path d="M18 20.8218V9C18 5.68629 15.3137 3 12 3C8.68629 3 6 5.68629 6 9V20.8218C6 20.9202 6.07979 21 6.17822 21H17.8218C17.9202 21 18 20.9202 18 20.8218Z" stroke="#333333" stroke-width="2"/>
<path d="M6 12L3.8906 13.4063C3.3342 13.7772 3 14.4017 3 15.0704V17C3 18.1046 3.89543 19 5 19H6" stroke="#333333" stroke-width="2"/>
<path d="M18 12L20.1094 13.4063C20.6658 13.7772 21 14.4017 21 15.0704V17C21 18.1046 20.1046 19 19 19H18" stroke="#333333" stroke-width="2"/>
<rect x="9" y="14" width="6" height="2" rx="1" fill="#333333"/>
</svg>
