<svg width="48" height="48" viewBox="0 0 48 48" fill="none" xmlns="http://www.w3.org/2000/svg">
<path d="M6.38432 37.7465C4.59459 34.9834 3.601 31.7842 3.5073 28.5H44.4927C44.399 31.7842 43.4054 34.9834 41.6157 37.7465C40.0996 40.087 37.5009 41.5 34.7123 41.5H13.2877C10.4991 41.5 7.90035 40.087 6.38432 37.7465Z" stroke="#333333" stroke-width="3"/>
<rect x="12" y="42" width="3" height="4" fill="#333333"/>
<rect x="33" y="42" width="3" height="4" fill="#333333"/>
<path d="M40 28V9.5C40 6.46243 37.5376 4 34.5 4V4C31.4624 4 29 6.46243 29 9.5V10.24" stroke="#333333" stroke-width="3"/>
<path d="M33.5 16V17.5H24.5V16C24.5 13.5147 26.5147 11.5 29 11.5C31.4853 11.5 33.5 13.5147 33.5 16Z" stroke="#333333" stroke-width="3"/>
<rect x="25" y="21" width="3" height="4" rx="1.5" fill="#333333"/>
<rect x="30" y="21" width="3" height="4" rx="1.5" fill="#333333"/>
</svg>
