<svg width="48" height="48" viewBox="0 0 48 48" fill="none" xmlns="http://www.w3.org/2000/svg">
<path d="M6 38.5L8.04567 36.4543C9.89306 34.6069 12.9331 34.7638 14.5805 36.7914L14.75 37C16.4258 39.0625 19.5742 39.0625 21.25 37V37C22.9258 34.9375 26.0742 34.9375 27.75 37V37C29.4258 39.0625 32.577 39.0591 34.2528 36.9965V36.9965C35.9279 34.9349 39.0759 34.9261 40.7579 36.9819L42 38.5" stroke="#333333" stroke-width="3" stroke-linecap="round"/>
<path d="M6 44.5L8.04567 42.4543C9.89306 40.6069 12.9331 40.7638 14.5805 42.7914L14.75 43C16.4258 45.0625 19.5742 45.0625 21.25 43V43C22.9258 40.9375 26.0742 40.9375 27.75 43V43C29.4258 45.0625 32.577 45.0591 34.2528 42.9965V42.9965C35.9279 40.9349 39.0759 40.9261 40.7579 42.9819L42 44.5" stroke="#333333" stroke-width="3" stroke-linecap="round"/>
<path d="M6 32.5L8.04567 30.4543C9.89306 28.6069 12.9331 28.7638 14.5805 30.7914L14.75 31C16.4258 33.0625 19.5742 33.0625 21.25 31V31C22.9258 28.9375 26.0742 28.9375 27.75 31V31C29.4258 33.0625 32.577 33.0591 34.2528 30.9965V30.9965C35.9279 28.9349 39.0759 28.9261 40.7579 30.9819L42 32.5" stroke="#333333" stroke-width="3" stroke-linecap="round"/>
<path d="M15.5 13.5V13.5C22.3757 14.8751 26.7982 21.6084 25.329 28.4646L25 30" stroke="#333333" stroke-width="3"/>
<path fill-rule="evenodd" clip-rule="evenodd" d="M17.0676 11.9462C17.6496 12.5358 17.6435 13.4855 17.0539 14.0675L16.6473 14.4689C14.6357 16.4546 14.4328 19.5388 15.9627 21.7481C16.4343 22.4292 16.5352 23.3676 16.0001 24V24C15.465 24.6324 14.5056 24.7182 13.9736 24.0832C11.1283 20.6872 11.2706 15.5611 14.5397 12.3339L14.9463 11.9325C15.5359 11.3505 16.4856 11.3567 17.0676 11.9462Z" fill="#333333"/>
<path fill-rule="evenodd" clip-rule="evenodd" d="M14.9981 14.1164C15.6147 14.6697 16.5631 14.6185 17.1164 14.0019L17.4451 13.6357C19.1016 11.7898 21.8079 11.5628 23.7281 12.8849C24.4105 13.3547 25.3434 13.5051 26 13V13C26.6566 12.4949 26.7875 11.5386 26.1672 10.9894C23.0374 8.21873 18.1261 8.3852 15.2123 11.6319L14.8837 11.9982C14.3303 12.6147 14.3816 13.5631 14.9981 14.1164Z" fill="#333333"/>
<path fill-rule="evenodd" clip-rule="evenodd" d="M16.1707 14.922C16.9462 14.6308 17.3389 13.766 17.0477 12.9904L16.8901 12.5707C15.8632 9.8356 17.5224 6.97477 20.1477 6.3071C20.9506 6.10292 21.6794 5.50221 21.733 4.67552V4.67552C21.7866 3.84883 21.1544 3.11916 20.3324 3.2224C15.519 3.82698 12.2863 8.84376 14.0815 13.6252L14.2391 14.045C14.5303 14.8205 15.3951 15.2132 16.1707 14.922Z" fill="#333333"/>
<path d="M5.84914 18.7115L5.89228 18.267C6.30468 14.0178 10.8594 11.5114 14.6697 13.437V13.437" stroke="#333333" stroke-width="3" stroke-linecap="round"/>
<circle cx="37" cy="14" r="4.5" stroke="#333333" stroke-width="3"/>
</svg>
