<svg width="24" height="24" viewBox="0 0 24 24" fill="none" xmlns="http://www.w3.org/2000/svg">
<path d="M18 12V9C18 5.68629 15.3137 3 12 3C8.68629 3 6 5.68629 6 9V12L3.9087 15.4855C3.50878 16.152 3.9889 17 4.76619 17H19.2338C20.0111 17 20.4912 16.152 20.0913 15.4855L18 12Z" stroke="#333333" stroke-width="2"/>
<path d="M9 18C9 18.7956 9.31607 19.5587 9.87868 20.1213C10.4413 20.6839 11.2043 21 12 21C12.7956 21 13.5587 20.6839 14.1213 20.1213C14.6839 19.5587 15 18.7957 15 18" stroke="#333333" stroke-width="2"/>
</svg>
