<svg width="48" height="48" viewBox="0 0 48 48" fill="none" xmlns="http://www.w3.org/2000/svg">
<path d="M37.5 24V24.4055L37.7043 24.7558L42.9498 33.7481C43.1443 34.0814 42.9038 34.5 42.5179 34.5H24H5.48208C5.09618 34.5 4.85574 34.0814 5.05018 33.7481L10.2957 24.7558L10.5 24.4055V24V19V17C10.5 9.54416 16.5442 3.5 24 3.5C31.4558 3.5 37.5 9.54416 37.5 17V19V24Z" stroke="#333333" stroke-width="3"/>
<path d="M17 36V37C17 40.866 20.134 44 24 44V44C27.866 44 31 40.866 31 37V36" stroke="#333333" stroke-width="3"/>
</svg>
