<svg width="48" height="48" viewBox="0 0 48 48" fill="none" xmlns="http://www.w3.org/2000/svg">
<path d="M44.5 15.7396V40C44.5 40.8284 43.8284 41.5 43 41.5H5C4.17157 41.5 3.5 40.8284 3.5 40V15.7396C3.5 14.9638 4.09158 14.316 4.8642 14.2458L12.542 13.5478C13.4565 13.4647 14.2519 12.8869 14.6136 12.0429L16.5995 7.40912C16.8358 6.8576 17.3781 6.5 17.9782 6.5H30.0218C30.6219 6.5 31.1642 6.8576 31.4005 7.40912L33.3864 12.0429C33.7481 12.8869 34.5435 13.4647 35.458 13.5478L43.1358 14.2458C43.9084 14.316 44.5 14.9638 44.5 15.7396Z" stroke="#333333" stroke-width="3"/>
<path d="M35 20.5C35 19.6716 35.6716 19 36.5 19H38.5C39.3284 19 40 19.6716 40 20.5V20.5C40 21.3284 39.3284 22 38.5 22H36.5C35.6716 22 35 21.3284 35 20.5V20.5Z" fill="#333333"/>
<path d="M37 8.5C37 7.67157 37.6716 7 38.5 7H42.5C43.3284 7 44 7.67157 44 8.5V8.5C44 9.32843 43.3284 10 42.5 10H38.5C37.6716 10 37 9.32843 37 8.5V8.5Z" fill="#333333"/>
<path d="M32.5 27C32.5 31.6944 28.6944 35.5 24 35.5C19.3056 35.5 15.5 31.6944 15.5 27C15.5 22.3056 19.3056 18.5 24 18.5C28.6944 18.5 32.5 22.3056 32.5 27Z" stroke="#333333" stroke-width="3"/>
</svg>
