<svg width="48" height="48" viewBox="0 0 48 48" fill="none" xmlns="http://www.w3.org/2000/svg">
<path d="M8 22.5H40C42.4853 22.5 44.5 24.5147 44.5 27V36C44.5 37.3807 43.3807 38.5 42 38.5H6C4.61929 38.5 3.5 37.3807 3.5 36V27C3.5 24.5147 5.51472 22.5 8 22.5Z" stroke="#333333" stroke-width="3"/>
<path d="M8 40H16V42C16 44.2091 14.2091 46 12 46V46C9.79086 46 8 44.2091 8 42V40Z" fill="#333333"/>
<path d="M32 40H40V42C40 44.2091 38.2091 46 36 46V46C33.7909 46 32 44.2091 32 42V40Z" fill="#333333"/>
<rect x="8" y="30" width="8" height="3" fill="#333333"/>
<rect x="32" y="30" width="8" height="3" fill="#333333"/>
<path d="M8 22L10.5914 6.01979C10.8269 4.56727 12.0812 3.5 13.5527 3.5H34.4473C35.9188 3.5 37.1731 4.56727 37.4086 6.01979L40 22" stroke="#333333" stroke-width="3"/>
</svg>
