<svg width="48" height="48" viewBox="0 0 48 48" fill="none" xmlns="http://www.w3.org/2000/svg">
<path d="M8 12.5L10.0457 10.4543C11.8931 8.60694 14.9331 8.76376 16.5805 10.7914L16.75 11C18.4258 13.0625 21.5742 13.0625 23.25 11V11C24.9258 8.93746 28.0742 8.93746 29.75 11V11C31.4258 13.0625 34.577 13.0591 36.2528 10.9965V10.9965C37.9279 8.93492 41.0759 8.92607 42.7579 10.9819L44 12.5" stroke="#333333" stroke-width="3" stroke-linecap="round"/>
<path d="M8 20.5L10.0457 18.4543C11.8931 16.6069 14.9331 16.7638 16.5805 18.7914L16.75 19C18.4258 21.0625 21.5742 21.0625 23.25 19V19C24.9258 16.9375 28.0742 16.9375 29.75 19V19C31.4258 21.0625 34.577 21.0591 36.2528 18.9965V18.9965C37.9279 16.9349 41.0759 16.9261 42.7579 18.9819L44 20.5" stroke="#333333" stroke-width="3" stroke-linecap="round"/>
<path d="M24.8438 26H6.875C5.28718 26 4 27.2872 4 28.875V33.4867C4 33.4954 4.00227 33.504 4.00659 33.5115L4.34672 34.1068C6.43292 37.7576 11.8917 37.0637 12.9981 33.007C12.9992 33.0028 13.003 33 13.0072 33H17.9928C17.997 33 18.0008 33.0028 18.0019 33.007C19.1083 37.0637 24.5671 37.7576 26.6533 34.1068L26.9934 33.5115C26.9977 33.504 27 33.4954 27 33.4867V28.1563C27 26.9654 26.0346 26 24.8438 26Z" stroke="#333333" stroke-width="3"/>
<rect x="12.5" y="40.5" width="6" height="4" rx="2" stroke="#333333" stroke-width="3"/>
<path d="M18.5 43L29.0038 40.2768C30.768 39.8194 32 38.2273 32 36.4048V21.5V3.5" stroke="#333333" stroke-width="3" stroke-linecap="round"/>
</svg>
