<svg width="24" height="24" viewBox="0 0 24 24" fill="none" xmlns="http://www.w3.org/2000/svg">
<path fill-rule="evenodd" clip-rule="evenodd" d="M11 3C11 2.44772 11.4477 2 12 2C12.5523 2 13 2.44772 13 3V5C13 5.01933 12.9995 5.03853 12.9984 5.0576C13.5575 5.13445 14.069 5.28824 14.5328 5.51896C15.2328 5.86493 15.7839 6.34123 16.1864 6.94787C16.406 7.27633 16.5683 7.6316 16.6733 8.01369C16.8219 8.55468 16.3547 9.0237 15.7937 9.0237H15.7623C15.2501 9.0237 14.8502 8.61631 14.611 8.16334C14.4653 7.8874 14.2599 7.65286 13.9948 7.45972C13.4873 7.08531 12.8487 6.8981 12.0788 6.8981C11.5276 6.8981 11.0508 6.99289 10.6483 7.18246C10.2459 7.3673 9.9331 7.62322 9.71001 7.95024C9.49128 8.27251 9.38192 8.63981 9.38192 9.05213C9.38192 9.3981 9.45629 9.69668 9.60502 9.94787C9.75813 10.1991 9.95716 10.41 10.2021 10.5806C10.4515 10.7464 10.7183 10.8863 11.0027 11C11.287 11.109 11.5604 11.1991 11.8229 11.2701L13.1352 11.6398C13.5639 11.7536 14.0035 11.9076 14.4541 12.1019C14.9047 12.2962 15.3224 12.5521 15.7074 12.8697C16.0923 13.1872 16.4029 13.5806 16.6391 14.0498C16.8797 14.519 17 15.0806 17 15.7346C17 16.5592 16.8032 17.2915 16.4095 17.9313C16.0202 18.5711 15.4537 19.0758 14.71 19.4455C14.2104 19.6953 13.6398 19.8607 12.9983 19.9417C12.9994 19.961 13 19.9804 13 20V21C13 21.5523 12.5523 22 12 22C11.4477 22 11 21.5523 11 21V20C11 19.9778 11.0007 19.9559 11.0021 19.9341C10.4168 19.8547 9.8877 19.7037 9.41473 19.481C8.67982 19.1351 8.10458 18.6446 7.68901 18.0095C7.44731 17.6374 7.26849 17.2252 7.15257 16.7729C7.01059 16.2189 7.47931 15.7346 8.05117 15.7346H8.10619C8.62953 15.7346 9.03483 16.1556 9.25242 16.6315C9.32147 16.7826 9.40619 16.922 9.50659 17.0498C9.78656 17.3957 10.1431 17.654 10.5761 17.8246C11.0136 17.9905 11.4926 18.0735 12.0132 18.0735C12.5862 18.0735 13.0958 17.9763 13.542 17.782C13.9926 17.5829 14.3469 17.3081 14.605 16.9573C14.8631 16.6019 14.9922 16.1872 14.9922 15.7133C14.9922 15.282 14.8784 14.9289 14.651 14.654C14.4279 14.3791 14.1238 14.1517 13.7389 13.9716C13.3583 13.7915 12.9274 13.6327 12.4462 13.4953L10.8583 13.0261C9.78218 12.7085 8.92917 12.2417 8.29925 11.6256C7.6737 11.0095 7.36093 10.1943 7.36093 9.18009C7.36093 8.34123 7.5709 7.609 7.99085 6.98341C8.41079 6.35782 8.97947 5.87204 9.69688 5.52607C10.1034 5.32735 10.5393 5.18493 11.0048 5.09881C11.0016 5.06631 11 5.03334 11 5V3Z" fill="#333333"/>
</svg>
