<svg width="48" height="48" viewBox="0 0 48 48" fill="none" xmlns="http://www.w3.org/2000/svg">
<path d="M5.06066 23.0607C15.5206 12.6008 32.4794 12.6008 42.9393 23.0607C43.4581 23.5794 43.4581 24.4206 42.9393 24.9393C32.4794 35.3992 15.5206 35.3992 5.06066 24.9393C4.54188 24.4206 4.54188 23.5794 5.06066 23.0607Z" stroke="#333333" stroke-width="3"/>
<circle cx="24" cy="24" r="8.5" stroke="#333333" stroke-width="3"/>
<path d="M18 8.5C18 7.67157 18.6716 7 19.5 7C20.3284 7 21 7.67157 21 8.5V11.5L18 12V8.5Z" fill="#333333"/>
<path d="M8 12.5C8 11.6716 8.67157 11 9.5 11C10.3284 11 11 11.6716 11 12.5V14L8 16V12.5Z" fill="#333333"/>
<path d="M30 8.5C30 7.67157 29.3284 7 28.5 7C27.6716 7 27 7.67157 27 8.5V11.5L30 12V8.5Z" fill="#333333"/>
<path d="M40 12.5C40 11.6716 39.3284 11 38.5 11C37.6716 11 37 11.6716 37 12.5V14L40 16V12.5Z" fill="#333333"/>
</svg>
