<svg width="48" height="48" viewBox="0 0 48 48" fill="none" xmlns="http://www.w3.org/2000/svg">
<g clip-path="url(#clip0_140_5)">
<path d="M11.5322 24.1003L12.396 22.1794C14.5532 17.382 18.5135 13.6275 23.4192 11.7293L25.0808 11.0863C30.7475 8.89361 37.0441 12.2197 38.4271 18.1364L38.8911 20.1216L42.6207 32.397L44.2646 38.2932C45.3459 42.1713 41.6342 45.6719 37.826 44.3655L31.609 42.2329L17.5889 37.7205C11.9133 35.8938 9.08706 29.5381 11.5322 24.1003Z" stroke="#333333" stroke-width="3"/>
<path d="M25.3524 4.97804C24.7703 9.4468 21.0659 12.7727 16.6814 12.9884C16.5969 8.64527 19.7046 4.78678 24.1096 4.04807L25.5039 3.81425L25.3524 4.97804Z" stroke="#333333" stroke-width="3"/>
<path d="M6.49494 22.5624C11.1642 22.3914 14.925 18.8282 15.4594 14.3075C10.4607 13.7488 5.69908 16.9274 4.38849 21.9106L4.19492 22.6466L6.49494 22.5624Z" stroke="#333333" stroke-width="3"/>
<path d="M15.4792 14.1387C14.4381 12.0027 10.7972 8.42534 4.56226 11.204" stroke="#333333" stroke-width="3" stroke-linecap="square"/>
<rect x="16.8394" y="27.7385" width="3" height="6" rx="1.5" transform="rotate(-42.4506 16.8394 27.7385)" fill="#333333"/>
<rect x="26" y="32.0249" width="3" height="6" rx="1.5" transform="rotate(-42.4506 26 32.0249)" fill="#333333"/>
<rect x="35" y="36.0249" width="3" height="4.29477" rx="1.5" transform="rotate(-42.4506 35 36.0249)" fill="#333333"/>
<rect x="22" y="23.0249" width="3" height="6" rx="1.5" transform="rotate(-42.4506 22 23.0249)" fill="#333333"/>
<rect x="31" y="27.0249" width="3" height="6" rx="1.5" transform="rotate(-42.4506 31 27.0249)" fill="#333333"/>
<rect x="26.9548" y="18.8486" width="3" height="6" rx="1.5" transform="rotate(-42.4506 26.9548 18.8486)" fill="#333333"/>
</g>
<defs>
<clipPath id="clip0_140_5">
<rect width="48" height="48" fill="white"/>
</clipPath>
</defs>
</svg>
