<svg width="48" height="48" viewBox="0 0 48 48" fill="none" xmlns="http://www.w3.org/2000/svg">
<path d="M17.1306 5.19826L23.0608 8.15676C23.0608 8.15677 23.0608 8.15677 23.0608 8.15677C23.6522 8.4518 24.3478 8.4518 24.9392 8.15677C24.9392 8.15677 24.9392 8.15677 24.9392 8.15676L30.8694 5.19826C32.449 4.41021 34.1901 4 35.9554 4C40.3983 4 44 7.60171 44 12.0447V14.421C44 19.0085 42.3139 23.4359 39.2624 26.8612L24 43.9933L8.73758 26.8612C5.68609 23.4359 4 19.0085 4 14.421V12.0447C4 7.60171 7.60171 4 12.0446 4C13.8099 4 15.551 4.41021 17.1306 5.19826Z" stroke="#D3D3D3" stroke-width="4"/>
</svg>
