<svg width="48" height="48" viewBox="0 0 48 48" fill="none" xmlns="http://www.w3.org/2000/svg">
<mask id="path-1-inside-1_137_20" fill="white">
<path d="M18.0235 3.40861L23.9537 6.36712C23.9828 6.38168 24.0172 6.38168 24.0463 6.36712L29.9765 3.40861C31.8334 2.48222 33.8802 2 35.9554 2C41.5029 2 46 6.49715 46 12.0447V14.421C46 19.499 44.1336 24.3999 40.7558 28.1916L25.2247 45.6253C24.5724 46.3575 23.4276 46.3575 22.7753 45.6253L7.24423 28.1916C3.8664 24.3999 2 19.499 2 14.421V12.0447C2 6.49714 6.49714 2 12.0446 2C14.1198 2 16.1666 2.48222 18.0235 3.40861Z"/>
</mask>
<path d="M18.0235 3.40861L23.9537 6.36712C23.9828 6.38168 24.0172 6.38168 24.0463 6.36712L29.9765 3.40861C31.8334 2.48222 33.8802 2 35.9554 2C41.5029 2 46 6.49715 46 12.0447V14.421C46 19.499 44.1336 24.3999 40.7558 28.1916L25.2247 45.6253C24.5724 46.3575 23.4276 46.3575 22.7753 45.6253L7.24423 28.1916C3.8664 24.3999 2 19.499 2 14.421V12.0447C2 6.49714 6.49714 2 12.0446 2C14.1198 2 16.1666 2.48222 18.0235 3.40861Z" fill="#EF3636"/>
<path d="M23.9537 6.36712L22.168 9.94642L22.168 9.94645L23.9537 6.36712ZM18.0235 3.40861L19.8092 -0.170683L18.0235 3.40861ZM7.24423 28.1916L4.25752 30.8523L4.25752 30.8523L7.24423 28.1916ZM22.7753 45.6253L25.762 42.9645L25.762 42.9645L22.7753 45.6253ZM25.2247 45.6253L28.2114 48.286L28.2114 48.286L25.2247 45.6253ZM40.7558 28.1916L37.7691 25.5308L37.7691 25.5308L40.7558 28.1916ZM29.9765 3.40861L28.1908 -0.170683L28.1908 -0.170682L29.9765 3.40861ZM24.0463 6.36712L22.2607 2.78783L22.2606 2.78785L24.0463 6.36712ZM25.7393 2.78783L19.8092 -0.170683L16.2378 6.98791L22.168 9.94642L25.7393 2.78783ZM-2 12.0447V14.421H6V12.0447H-2ZM4.25752 30.8523L19.7886 48.286L25.762 42.9645L10.2309 25.5308L4.25752 30.8523ZM28.2114 48.286L43.7425 30.8523L37.7691 25.5308L22.238 42.9645L28.2114 48.286ZM50 14.421V12.0447H42V14.421H50ZM28.1908 -0.170682L22.2607 2.78783L25.832 9.94642L31.7622 6.98791L28.1908 -0.170682ZM35.9554 -2C33.2604 -2 30.6023 -1.37376 28.1908 -0.170683L31.7622 6.98791C33.0645 6.3382 34.5 6 35.9554 6V-2ZM50 12.0447C50 4.28801 43.712 -2 35.9554 -2V6C39.2937 6 42 8.70628 42 12.0447H50ZM43.7425 30.8523C47.773 26.3281 50 20.4802 50 14.421H42C42 18.5179 40.4942 22.4718 37.7691 25.5308L43.7425 30.8523ZM19.7886 48.286C22.0317 50.8039 25.9683 50.8039 28.2114 48.286L22.238 42.9645C23.1765 41.9111 24.8235 41.9111 25.762 42.9645L19.7886 48.286ZM-2 14.421C-2 20.4802 0.227032 26.3281 4.25752 30.8523L10.2309 25.5308C7.50578 22.4718 6 18.5179 6 14.421H-2ZM12.0446 -2C4.288 -2 -2 4.28801 -2 12.0447H6C6 8.70628 8.70628 6 12.0446 6V-2ZM19.8092 -0.170683C17.3977 -1.37376 14.7396 -2 12.0446 -2V6C13.5 6 14.9355 6.3382 16.2378 6.98791L19.8092 -0.170683ZM22.168 9.94645C23.3215 10.5219 24.6784 10.5219 25.8321 9.9464L22.2606 2.78785C23.3559 2.24142 24.6442 2.24147 25.7393 2.7878L22.168 9.94645Z" fill="#EF3636" mask="url(#path-1-inside-1_137_20)"/>
</svg>
