<svg width="24" height="24" viewBox="0 0 24 24" fill="none" xmlns="http://www.w3.org/2000/svg">
<path d="M4.02871 7.42849L11.5144 3.2698C11.8164 3.10201 12.1836 3.10201 12.4856 3.2698L19.9713 7.42849C20.6062 7.78123 21 8.45047 21 9.17681V20C21 20.5523 20.5523 21 20 21H16C15.4477 21 15 20.5523 15 20V14C15 13.4477 14.5523 13 14 13H10C9.44772 13 9 13.4477 9 14V20C9 20.5523 8.55228 21 8 21H4C3.44772 21 3 20.5523 3 20V9.17681C3 8.45047 3.39378 7.78123 4.02871 7.42849Z" stroke="#333333" stroke-width="2"/>
</svg>
