<svg width="48" height="48" viewBox="0 0 48 48" fill="none" xmlns="http://www.w3.org/2000/svg">
<path d="M44.5 18.2981V41C44.5 42.933 42.933 44.5 41 44.5H34C32.6193 44.5 31.5 43.3807 31.5 42V30C31.5 28.067 29.933 26.5 28 26.5H20C18.067 26.5 16.5 28.067 16.5 30V42C16.5 43.3807 15.3807 44.5 14 44.5H7C5.067 44.5 3.5 42.933 3.5 41V18.2981C3.5 17.0811 4.13217 15.9515 5.16944 15.315L22.1694 4.88319C23.2925 4.19403 24.7075 4.19403 25.8306 4.88319L42.8306 15.315C43.8678 15.9515 44.5 17.0811 44.5 18.2981Z" stroke="#333333" stroke-width="3"/>
</svg>
