<svg width="48" height="48" viewBox="0 0 48 48" fill="none" xmlns="http://www.w3.org/2000/svg">
<g clip-path="url(#clip0_132_25)">
<path d="M13 43V40C13 35.5817 16.5817 32 21 32H24H27C31.4183 32 35 35.5817 35 40V43" stroke="#333333" stroke-width="3"/>
<path d="M4 44.1176C8.17727 44.1176 8.86462 41.2436 8.97772 40.2978C8.98466 40.2398 9.08138 40.2279 9.10101 40.2828V40.2828C10.745 44.886 17.255 44.886 18.899 40.2828V40.2828C18.9186 40.2279 19.0153 40.2398 19.0223 40.2978C19.1354 41.2436 19.8227 44.1176 24 44.1176" stroke="#333333" stroke-width="3" stroke-linecap="round"/>
<path d="M24 44.1176C28.1773 44.1176 28.8646 41.2436 28.9777 40.2978C28.9847 40.2398 29.0814 40.2279 29.101 40.2828V40.2828C30.745 44.886 37.255 44.886 38.899 40.2828V40.2828C38.9186 40.2279 39.0153 40.2398 39.0223 40.2978C39.1354 41.2436 39.8227 44.1176 44 44.1176" stroke="#333333" stroke-width="3" stroke-linecap="round"/>
<path d="M14.8315 12.0892V12.0892C20.7869 14.0509 24.6835 19.7664 24.3337 26.0267L24 32" stroke="#333333" stroke-width="3"/>
<path d="M15.7107 21.9918L15.3463 21.693C12.4818 19.3438 12.4094 14.9857 15.1943 12.5427V12.5427" stroke="#333333" stroke-width="3" stroke-linecap="round"/>
<path d="M15.5754 12.2706L15.7893 11.8508C17.471 8.54988 21.7127 7.54651 24.6951 9.74409V9.74409" stroke="#333333" stroke-width="3" stroke-linecap="round"/>
<path d="M15.723 12.3632L15.4519 12.0589C13.1457 9.46943 13.9028 5.39994 16.9859 3.81305V3.81305" stroke="#333333" stroke-width="3" stroke-linecap="round"/>
<path d="M7.22803 16.9007L7.3298 16.4406C8.12988 12.8235 11.9843 10.7883 15.4225 12.1676V12.1676" stroke="#333333" stroke-width="3" stroke-linecap="round"/>
</g>
<defs>
<clipPath id="clip0_132_25">
<rect width="48" height="48" fill="white"/>
</clipPath>
</defs>
</svg>
