<svg width="24" height="24" viewBox="0 0 24 24" fill="none" xmlns="http://www.w3.org/2000/svg">
<path d="M4 4C4 2.89543 4.89543 2 6 2H10.8401C12.3917 2 13.702 2.24038 14.7711 2.72115C15.8496 3.20192 16.6679 3.91346 17.2261 4.85577C17.7938 5.78846 18.0776 6.9375 18.0776 8.30289C18.0776 9.26442 17.8836 10.1442 17.4957 10.9423C17.1173 11.7308 16.5686 12.4038 15.8496 12.9615C15.14 13.5096 14.2886 13.9183 13.2952 14.1875L12.5289 14.4904H6.10028L6.0719 12.226H10.9253C11.9092 12.226 12.7275 12.0529 13.3803 11.7067C14.0331 11.351 14.5251 10.875 14.8562 10.2788C15.1873 9.68269 15.3529 9.02404 15.3529 8.30289C15.3529 7.49519 15.1968 6.78846 14.8846 6.18269C14.5724 5.57692 14.0804 5.11058 13.4087 4.78365C12.7465 4.44712 11.8903 4.27885 10.8401 4.27885H6.73888V21.6306C6.73888 22.3869 6.12576 23 5.36944 23V23C4.61312 23 4 22.3869 4 21.6306V4ZM16.8528 23C16.3754 23 15.9372 22.7358 15.7144 22.3136L11.053 13.4808L13.9054 13.4663L17.988 21.1062C18.4462 21.9636 17.8249 23 16.8528 23V23Z" fill="#FEFEFE"/>
</svg>
