<svg width="24" height="24" viewBox="0 0 24 24" fill="none" xmlns="http://www.w3.org/2000/svg">
<path d="M21 21C21 15 15 15 12 15C5 15 5 16.0001 3 21" stroke="#EF3636" stroke-width="2.5" stroke-linecap="round"/>
<path fill-rule="evenodd" clip-rule="evenodd" d="M3.75 6C3.75 3.65279 5.65279 1.75 8 1.75H14C18.0041 1.75 21.25 4.99594 21.25 9C21.25 12.6648 18.5308 15.6945 15 16.1816C14.6731 16.2267 14.3393 16 14 16H11C10.3096 16 9.75 15.6904 9.75 15C9.75 14.3096 10.3096 14 11 14L13 13.75H14C16.6234 13.75 18.75 11.6234 18.75 9C18.75 6.37665 16.6234 4.25 14 4.25H8C7.0335 4.25 6.25 5.0335 6.25 6C6.25 6.9665 7.0335 7.75 8 7.75H14C14.6904 7.75 15.25 8.30964 15.25 9C15.25 9.69036 14.6904 10.25 14 10.25H8C5.65279 10.25 3.75 8.34721 3.75 6Z" fill="#EF3636"/>
</svg>
