<svg width="48" height="48" viewBox="0 0 48 48" fill="none" xmlns="http://www.w3.org/2000/svg">
<path d="M43.8971 9.62473L44.3284 13.2474C44.8511 17.6382 41.4218 21.5 37 21.5C32.5782 21.5 29.1489 17.6382 29.6716 13.2474L30.1029 9.62472C30.5188 6.13093 33.4815 3.5 37 3.5C40.5185 3.5 43.4812 6.13093 43.8971 9.62473Z" stroke="#333333" stroke-width="3"/>
<path d="M35 21L33.3322 41.0138C33.1534 43.1596 34.8467 45 37 45V45C39.1533 45 40.8466 43.1596 40.6678 41.0138L39 21" stroke="#333333" stroke-width="3"/>
<path d="M4 2V14C4 18.4183 7.58172 22 12 22H14C18.4183 22 22 18.4183 22 14V2" stroke="#333333" stroke-width="3"/>
<path d="M11 21L9.33218 41.0138C9.15336 43.1596 10.8467 45 13 45V45C15.1533 45 16.8466 43.1596 16.6678 41.0138L15 21" stroke="#333333" stroke-width="3"/>
<rect x="8" y="2" width="3" height="12" fill="#333333"/>
<rect x="15" y="2" width="3" height="12" fill="#333333"/>
</svg>
