<svg width="48" height="48" viewBox="0 0 48 48" fill="none" xmlns="http://www.w3.org/2000/svg">
<path fill-rule="evenodd" clip-rule="evenodd" d="M24 16.9926L24.1493 17.0075C33.4314 17.9357 40.5 25.7464 40.5 35.0748V46H37.5V35.0748C37.5 31.1762 36.021 27.5952 33.5716 24.8936C28.6672 19.4845 19.3328 19.4845 14.4284 24.8936C11.979 27.5952 10.5 31.1762 10.5 35.0748V46H7.5V35.0748C7.5 25.7464 14.5686 17.9357 23.8507 17.0075L24 16.9926Z" fill="#333333"/>
<rect x="19" y="38" width="3" height="8" fill="#333333"/>
<rect x="13" y="38" width="3" height="8" fill="#333333"/>
<rect x="46" y="33" width="3" height="44" transform="rotate(90 46 33)" fill="#333333"/>
<rect x="26" y="38" width="3" height="8" fill="#333333"/>
<rect x="32" y="38" width="3" height="8" fill="#333333"/>
<path fill-rule="evenodd" clip-rule="evenodd" d="M29 9.22298C28.2435 9.63584 27.3758 9.87049 26.4533 9.87049C23.513 9.87049 21.1295 7.48696 21.1295 4.54673C21.1295 3.62421 21.3642 2.75649 21.777 2C20.1225 2.903 19 4.65854 19 6.67624C19 9.61647 21.3835 12 24.3238 12C26.3415 12 28.097 10.8775 29 9.22298Z" fill="#333333"/>
<path d="M22 15H26V18H22V15Z" fill="#333333"/>
</svg>
