<svg width="48" height="48" viewBox="0 0 48 48" fill="none" xmlns="http://www.w3.org/2000/svg">
<mask id="path-1-inside-1_165_48" fill="white">
<rect x="17" y="2" width="14" height="10" rx="2"/>
</mask>
<rect x="17" y="2" width="14" height="10" rx="2" stroke="#333333" stroke-width="6" mask="url(#path-1-inside-1_165_48)"/>
<path d="M20 10V14L17.3167 15.3416C15.284 16.358 14 18.4356 14 20.7082V28.8074C14 28.9346 14.0243 29.0607 14.0715 29.1788L15.8332 33.5831C15.9393 33.8483 15.9269 34.1462 15.7992 34.4017L14.1056 37.7889C14.0361 37.9277 14 38.0808 14 38.2361V41C14 43.2091 15.7909 45 18 45H30C32.2091 45 34 43.2091 34 41V38.2361C34 38.0808 33.9639 37.9277 33.8944 37.7889L32.2008 34.4017C32.0731 34.1462 32.0607 33.8483 32.1668 33.5831L33.9285 29.1788C33.9757 29.0607 34 28.9346 34 28.8074V20.7082C34 18.4356 32.716 16.358 30.6833 15.3416L28 14V10" stroke="#333333" stroke-width="3"/>
<rect x="14" y="20" width="20" height="3" fill="#333333"/>
<rect x="14" y="28" width="20" height="3" fill="#333333"/>
</svg>
