<svg width="48" height="48" viewBox="0 0 48 48" fill="none" xmlns="http://www.w3.org/2000/svg">
<path d="M3.5 29.5H31.75C33.5449 29.5 35 30.9551 35 32.75V32.75C35 34.5449 33.5449 36 31.75 36H18.5C16.2909 36 14.5 37.7909 14.5 40V40C14.5 42.2091 16.2909 44 18.5 44H28" stroke="#333333" stroke-width="3" stroke-linecap="round"/>
<path d="M22 13.5L24.9447 18.8985C24.9738 18.9521 25.0437 18.9672 25.0925 18.9307L29 16L32.4337 17.9621C32.4728 17.9845 32.5221 17.9779 32.554 17.946L35.5 15" stroke="#333333" stroke-width="3"/>
<path d="M16 24L26.3418 6.76361C27.1051 5.49145 28.9392 5.46397 29.7402 6.71268L45 30.5" stroke="#333333" stroke-width="3" stroke-linecap="round"/>
</svg>
