<svg width="48" height="48" viewBox="0 0 48 48" fill="none" xmlns="http://www.w3.org/2000/svg">
<path d="M44.5 24C44.5 34.7046 35.3884 43.5 24 43.5C12.6116 43.5 3.5 34.7046 3.5 24C3.5 13.2954 12.6116 4.5 24 4.5C35.3884 4.5 44.5 13.2954 44.5 24Z" stroke="#333333" stroke-width="3"/>
<path d="M18 36.2727V13H25.8636C27.6894 13 29.1818 13.3295 30.3409 13.9886C31.5076 14.6402 32.3712 15.5227 32.9318 16.6364C33.4924 17.75 33.7727 18.9924 33.7727 20.3636C33.7727 21.7348 33.4924 22.9811 32.9318 24.1023C32.3788 25.2235 31.5227 26.1174 30.3636 26.7841C29.2045 27.4432 27.7197 27.7727 25.9091 27.7727H20.2727V25.2727H25.8182C27.0682 25.2727 28.072 25.0568 28.8295 24.625C29.5871 24.1932 30.1364 23.6098 30.4773 22.875C30.8258 22.1326 31 21.2955 31 20.3636C31 19.4318 30.8258 18.5985 30.4773 17.8636C30.1364 17.1288 29.5833 16.553 28.8182 16.1364C28.053 15.7121 27.0379 15.5 25.7727 15.5H20.8182V36.2727H18Z" fill="#333333"/>
</svg>
