<svg width="48" height="48" viewBox="0 0 48 48" fill="none" xmlns="http://www.w3.org/2000/svg">
<path fill-rule="evenodd" clip-rule="evenodd" d="M45.5 14C45.5 8.15595 41.1408 3.33004 35.4966 2.5965C34.6751 2.48974 34 3.17157 34 4V4C34 4.82843 34.6772 5.48615 35.4929 5.63068C39.4754 6.33629 42.5 9.81494 42.5 14C42.5 18.6944 38.6944 22.5 34 22.5H14C7.64873 22.5 2.5 27.6487 2.5 34C2.5 40.3513 7.64873 45.5 14 45.5H43.5C44.3284 45.5 45 44.8284 45 44V44C45 43.1716 44.3284 42.5 43.5 42.5H14C9.30558 42.5 5.5 38.6944 5.5 34C5.5 29.3056 9.30558 25.5 14 25.5H34C40.3513 25.5 45.5 20.3513 45.5 14Z" fill="#333333"/>
<circle cx="10" cy="9" r="5.5" stroke="#333333" stroke-width="3"/>
<path d="M9.28593 18.2717L5 13.9L10 14L15 13.9L10.7141 18.2717C10.322 18.6716 9.67799 18.6716 9.28593 18.2717Z" fill="#333333"/>
<path fill-rule="evenodd" clip-rule="evenodd" d="M26 4C26 3.17157 26.6716 2.5 27.5 2.5L29.5 2.5C30.3284 2.5 31 3.17157 31 4V4C31 4.82843 30.3284 5.5 29.5 5.5L27.5 5.5C26.6716 5.5 26 4.82843 26 4V4Z" fill="#333333"/>
<path fill-rule="evenodd" clip-rule="evenodd" d="M18 4C18 3.17157 18.6716 2.5 19.5 2.5L21.5 2.5C22.3284 2.5 23 3.17157 23 4V4C23 4.82843 22.3284 5.5 21.5 5.5L19.5 5.5C18.6716 5.5 18 4.82843 18 4V4Z" fill="#333333"/>
</svg>
