<svg width="48" height="48" viewBox="0 0 48 48" fill="none" xmlns="http://www.w3.org/2000/svg">
<g clip-path="url(#clip0_179_5)">
<path fill-rule="evenodd" clip-rule="evenodd" d="M32.1838 32.1838C38.4322 25.9354 38.4322 15.8048 32.1838 9.55641C25.9354 3.30802 15.8047 3.30802 9.55635 9.55641C3.30796 15.8048 3.30796 25.9354 9.55635 32.1838C15.8047 38.4322 25.9354 38.4322 32.1838 32.1838ZM34.3051 34.3051C41.725 26.8852 41.725 14.855 34.3051 7.43509C26.8851 0.0151273 14.855 0.0151273 7.43503 7.43509C0.0150673 14.855 0.0150673 26.8852 7.43503 34.3051C14.855 41.7251 26.8851 41.7251 34.3051 34.3051Z" fill="#FEFEFE"/>
<path d="M36.9921 39.8203C36.211 39.0393 36.211 37.773 36.9921 36.9919V36.9919C37.7731 36.2109 39.0395 36.2109 39.8205 36.9919L44.3246 41.496C45.1057 42.2771 45.1057 43.5434 44.3246 44.3245V44.3245C43.5436 45.1055 42.2773 45.1055 41.4962 44.3245L36.9921 39.8203Z" fill="#FEFEFE"/>
</g>
<defs>
<clipPath id="clip0_179_5">
<rect width="48" height="48" fill="white"/>
</clipPath>
</defs>
</svg>
