<svg width="48" height="48" viewBox="0 0 48 48" fill="none" xmlns="http://www.w3.org/2000/svg">
<rect x="37" y="31" width="3" height="6" fill="#333333"/>
<mask id="path-2-inside-1_165_81" fill="white">
<rect x="2" y="28" width="44" height="11" rx="2"/>
</mask>
<rect x="2" y="28" width="44" height="11" rx="2" stroke="#333333" stroke-width="6" mask="url(#path-2-inside-1_165_81)"/>
<path fill-rule="evenodd" clip-rule="evenodd" d="M29 10.5C29 9.67157 29.6716 9 30.5 9H33C35.4853 9 37.5 11.0147 37.5 13.5C37.5 14.3284 38.1716 15 39 15H40C43.0376 15 45.5 17.4624 45.5 20.5V25.5H42.5V20.5C42.5 19.1193 41.3807 18 40 18H39C36.5147 18 34.5 15.9853 34.5 13.5C34.5 12.6716 33.8284 12 33 12H30.5C29.6716 12 29 11.3284 29 10.5Z" fill="#333333"/>
<path fill-rule="evenodd" clip-rule="evenodd" d="M24 16.5C24 15.6716 24.6716 15 25.5 15H29C30.933 15 32.5 16.567 32.5 18.5C32.5 18.7761 32.7239 19 33 19H34.5C37.2614 19 39.5 21.2386 39.5 24V25.5H36.5V24C36.5 22.8954 35.6046 22 34.5 22H33C31.067 22 29.5 20.433 29.5 18.5C29.5 18.2239 29.2761 18 29 18H25.5C24.6716 18 24 17.3284 24 16.5Z" fill="#333333"/>
<rect x="13" y="31" width="3" height="7" fill="#333333"/>
</svg>
