<svg width="48" height="48" viewBox="0 0 48 48" fill="none" xmlns="http://www.w3.org/2000/svg">
<path d="M9 4H39C39.5523 4 40 4.44772 40 5V8.5C40 8.81476 39.8518 9.11115 39.6 9.3L36.3205 11.7596C36.1148 11.9139 35.9764 12.1415 35.9341 12.3952L32.6963 31.822C32.2945 34.2329 30.2086 36 27.7644 36H20.2356C17.7914 36 15.7055 34.2329 15.3037 31.822L12.0659 12.3952C12.0236 12.1415 11.8852 11.9139 11.6795 11.7596L8.4 9.3C8.14819 9.11115 8 8.81476 8 8.5V5C8 4.44772 8.44772 4 9 4Z" stroke="#333333" stroke-width="3"/>
<path d="M19 36V42C19 43.1046 19.8954 44 21 44H27C28.1046 44 29 43.1046 29 42V36" stroke="#333333" stroke-width="3"/>
<path d="M13 15H35.2952" stroke="#333333" stroke-width="3"/>
<path d="M14 26L33 26" stroke="#333333" stroke-width="3"/>
</svg>
