<svg width="48" height="48" viewBox="0 0 48 48" fill="none" xmlns="http://www.w3.org/2000/svg">
<path d="M9.34763 44H15.3612C16.2268 44 16.9941 43.4432 17.2626 42.6203L18.1641 39.8567C21.8604 28.526 20.3115 16.1371 13.9393 6.06525L13.3904 5.19771C12.7446 4.17684 11.2554 4.17684 10.6096 5.19771C3.91984 15.7715 2.51947 28.8523 6.81928 40.6026L7.62087 42.7931C7.88611 43.518 8.57579 44 9.34763 44Z" stroke="#333333" stroke-width="3"/>
<path d="M4.5 24.5L18.5 12.5" stroke="#333333" stroke-width="3"/>
<path d="M5 35L20 22" stroke="#333333" stroke-width="3"/>
<path d="M21 35C25.808 35 26.5957 31.5041 26.7247 30.3586C26.7323 30.2917 26.8442 30.2786 26.8658 30.3424V30.3424C28.6887 35.7318 36.3113 35.7318 38.1342 30.3424V30.3424C38.1558 30.2787 38.2677 30.2917 38.2753 30.3586C38.4043 31.5041 39.192 35 44 35" stroke="#333333" stroke-width="3" stroke-linecap="round"/>
</svg>
