<svg width="48" height="48" viewBox="0 0 48 48" fill="none" xmlns="http://www.w3.org/2000/svg">
<path d="M13.5 44.5V3.5H19.0751C21.2931 7.1371 26.7069 7.1371 28.9249 3.5H34.5V44.5H28.9249C26.7069 40.8629 21.2931 40.8629 19.0751 44.5H13.5Z" stroke="#333333" stroke-width="3"/>
<path fill-rule="evenodd" clip-rule="evenodd" d="M19 16C19 16.8284 18.3284 17.5 17.5 17.5H14.5C13.6716 17.5 13 16.8284 13 16C13 15.1716 13.6716 14.5 14.5 14.5H17.5C18.3284 14.5 19 15.1716 19 16Z" fill="#333333"/>
<path fill-rule="evenodd" clip-rule="evenodd" d="M26 16C26 16.8284 25.3284 17.5 24.5 17.5H23.5C22.6716 17.5 22 16.8284 22 16C22 15.1716 22.6716 14.5 23.5 14.5H24.5C25.3284 14.5 26 15.1716 26 16Z" fill="#333333"/>
<path fill-rule="evenodd" clip-rule="evenodd" d="M35 16C35 16.8284 34.3284 17.5 33.5 17.5H30.5C29.6716 17.5 29 16.8284 29 16C29 15.1716 29.6716 14.5 30.5 14.5H33.5C34.3284 14.5 35 15.1716 35 16Z" fill="#333333"/>
<path fill-rule="evenodd" clip-rule="evenodd" d="M20.5 36C19.6716 36 19 35.3284 19 34.5L19 23.5C19 22.6716 19.6716 22 20.5 22C21.3284 22 22 22.6716 22 23.5L22 34.5C22 35.3284 21.3284 36 20.5 36Z" fill="#333333"/>
<path fill-rule="evenodd" clip-rule="evenodd" d="M27.5 36C26.6716 36 26 35.3284 26 34.5L26 27.5C26 26.6716 26.6716 26 27.5 26C28.3284 26 29 26.6716 29 27.5L29 34.5C29 35.3284 28.3284 36 27.5 36Z" fill="#333333"/>
</svg>
