<svg width="48" height="48" viewBox="0 0 48 48" fill="none" xmlns="http://www.w3.org/2000/svg">
<circle cx="24" cy="7" r="3.5" stroke="#333333" stroke-width="3"/>
<path d="M18 33.5L13.8237 43.5232C13.3641 44.6263 12.1137 45.1676 10.9948 44.748V44.748C9.88003 44.33 9.29345 43.1071 9.66516 41.9761L15.08 25.5M22 15V15C23.8551 15 25.568 15.994 26.4884 17.6047L28.1172 20.4551C28.6729 21.4276 29.6541 22.0818 30.7656 22.2207L35.139 22.7674C36.2022 22.9003 37 23.804 37 24.8755V24.8755C37 26.0488 36.0488 27 34.8755 27H28.5121C27.5496 27 26.6323 26.5915 25.9885 25.8761L23.7259 23.3621C23.1965 22.7739 22.226 23.0045 22.0178 23.7679L21.1457 26.9656C21.0551 27.2981 21.142 27.6538 21.3757 27.907L26.5724 33.5367C26.8416 33.8284 26.9582 34.2297 26.8872 34.6203L25.3162 43.2609C25.1331 44.268 24.256 45 23.2324 45V45C22.0189 45 21.0536 43.9825 21.1173 42.7707L21.465 36.1643C21.4872 35.7432 21.322 35.3338 21.0137 35.0461L16.0084 30.3745C14.7899 29.2372 14.366 27.4834 14.9305 25.9152L17.963 17.4918C18.1611 16.9413 18.4848 16.4445 18.9083 16.0407V16.0407C19.6091 15.3727 20.5401 15 21.5083 15H22Z" stroke="#333333" stroke-width="3"/>
<rect x="12.5674" y="11" width="3.7757" height="13.8645" rx="1.88785" transform="rotate(19.2338 12.5674 11)" fill="#333333"/>
<rect x="33" y="27" width="3" height="19" rx="1.5" fill="#333333"/>
<rect x="33" y="16" width="3" height="8" rx="1.5" fill="#333333"/>
</svg>
