<svg width="48" height="48" viewBox="0 0 48 48" fill="none" xmlns="http://www.w3.org/2000/svg">
<path d="M44 22C44 17.2261 41.8929 12.6477 38.1421 9.27208C34.3914 5.89642 29.3043 4 24 4C18.6957 4 13.6086 5.89642 9.85787 9.27208C6.10714 12.6477 4 17.2261 4 22" stroke="#333333" stroke-width="3"/>
<path d="M4.5 18.5L6.33359 18.8291C18.0178 20.9263 29.9822 20.9263 41.6664 18.8291L43.5 18.5" stroke="#333333" stroke-width="3"/>
<path d="M24 4V4C18.2679 8.45829 14.6825 15.1278 14.1255 22.3682L14 24" stroke="#333333" stroke-width="3"/>
<path d="M24 4V4C29.7321 8.45829 33.3175 15.1278 33.8745 22.3682L34 24" stroke="#333333" stroke-width="3"/>
<path d="M24 20.9418V41C24 43.2092 22.2091 45 20 45V45C17.7909 45 16 43.2092 16 41V38" stroke="#333333" stroke-width="3" stroke-linecap="round"/>
</svg>
