<svg width="48" height="48" viewBox="0 0 48 48" fill="none" xmlns="http://www.w3.org/2000/svg">
<g clip-path="url(#clip0_132_185)">
<path d="M3 15L16 4L29 15" stroke="#333333" stroke-width="3"/>
<rect x="6" y="12" width="3" height="19" fill="#333333"/>
<rect x="18" y="30" width="3" height="16" transform="rotate(90 18 30)" fill="#333333"/>
<rect x="21" y="16" width="3" height="10" transform="rotate(90 21 16)" fill="#333333"/>
<rect x="21" y="22" width="3" height="10" transform="rotate(90 21 22)" fill="#333333"/>
<rect x="23" y="12" width="3" height="11" fill="#333333"/>
<rect x="23" y="12" width="3" height="16" fill="#333333"/>
<rect x="21" y="4" width="3" height="6" fill="#333333"/>
<path d="M40.3226 7.46152C44.3529 13.1377 43.4983 20.8586 38.5017 25.5265C33.611 20.9238 32.9272 13.2768 37.111 7.85736L38.9303 5.50066L40.3226 7.46152Z" stroke="#333333" stroke-width="3"/>
<path d="M35.9164 31.2164L46 30.5V33.5L36.1302 34.2088C29.4694 34.6845 24.4315 39.8257 23.6307 46H20.6086C21.423 38.2902 27.645 31.8072 35.9164 31.2164Z" fill="#333333"/>
<path d="M31.2438 25.5L46.0001 25.5L46.0001 28.5L31.2438 28.5C20.816 28.5001 12.4093 36.2383 10.9942 46L7.96576 46C9.3992 34.6031 19.1327 25.5001 31.2438 25.5Z" fill="#333333"/>
<path d="M45.6594 39.9608C41.4064 38.9684 37.6324 42.0866 37.278 46.0001L34.2643 46.0001C34.6131 40.3491 39.9246 35.7598 46 36.9656C46.0502 36.9756 46 37.6406 46 37.6406L46 40L45.6594 39.9608Z" fill="#333333"/>
</g>
<defs>
<clipPath id="clip0_132_185">
<rect width="48" height="48" fill="white"/>
</clipPath>
</defs>
</svg>
