<svg width="48" height="48" viewBox="0 0 48 48" fill="none" xmlns="http://www.w3.org/2000/svg">
<path fill-rule="evenodd" clip-rule="evenodd" d="M45 15.474C44.5639 16.1784 43.6405 16.393 42.9197 15.9847C31.1868 9.33845 16.8132 9.33845 5.08026 15.9847C4.35945 16.393 3.43603 16.1784 2.99998 15.474V15.474C2.56393 14.7696 2.78028 13.8425 3.49994 13.4321C16.2022 6.18929 31.7977 6.18929 44.5 13.4321C45.2197 13.8425 45.436 14.7696 45 15.474V15.474Z" fill="#333333"/>
<path fill-rule="evenodd" clip-rule="evenodd" d="M39.9999 23.474C39.5306 24.1566 38.5981 24.3252 37.8903 23.8947C29.3625 18.7078 18.6374 18.7078 10.1095 23.8947C9.40174 24.3252 8.46927 24.1566 7.99994 23.474V23.474C7.53061 22.7913 7.7023 21.8535 8.40765 21.419C17.963 15.533 30.0369 15.533 39.5922 21.419C40.2976 21.8535 40.4693 22.7913 39.9999 23.474V23.474Z" fill="#333333"/>
<path fill-rule="evenodd" clip-rule="evenodd" d="M33.9999 30.474C33.4824 31.1209 32.5412 31.2197 31.8575 30.7518C26.7181 27.2349 20.66 26.7213 15.5 30.474L15.0242 30.8308C14.3962 31.3017 13.5043 31.1676 13.0426 30.5328V30.5328C12.5493 29.8544 12.7554 28.8979 13.4843 28.4829L13.5 28.474C19.7542 23.9255 27.4873 24.1117 33.7329 28.4083C34.4155 28.8779 34.5174 29.8271 33.9999 30.474V30.474Z" fill="#333333"/>
<circle cx="24" cy="36.474" r="4" fill="#333333"/>
</svg>
