<svg width="1024" height="1538" viewBox="0 0 1024 1538" fill="none" xmlns="http://www.w3.org/2000/svg">
<path d="M512 0.998093C660.87 0.998093 795.471 25.7965 889.501 91.6159C973.186 150.196 1024 239.247 1024 368.999C1024 455.172 985.932 564.657 930.182 674.014C864.893 802.086 774.557 931.614 693.481 1022.44L693.579 1022.52C681.81 1035.71 661.58 1036.85 648.396 1025.08C647.855 1024.6 647.337 1024.1 646.836 1023.59C629.694 1008.95 609.261 997.069 586.528 988.829C563.803 980.592 538.635 976.039 512 976.039C485.365 976.039 460.197 980.592 437.473 988.829C413.928 997.365 392.849 1009.8 375.339 1025.17L375.412 1025.25C362.135 1036.92 341.914 1035.61 330.251 1022.33C329.648 1021.64 329.083 1020.94 328.549 1020.22C247.982 929.511 158.579 801.05 93.8179 674.014C38.0686 564.657 -0.000732422 455.172 -0.000732422 368.999C-0.000732422 239.247 50.8151 150.196 134.499 91.6158C228.529 25.7965 363.13 0.998047 512 0.998047L512 0.998093ZM853 143.865C771.164 86.5804 649.04 64.9993 512 64.9993C374.96 64.9993 252.836 86.5804 171 143.865C104.426 190.468 64 262.614 64 368.999C64 444.298 99.2288 543.818 150.817 645.013C208.662 758.483 286.389 872.599 358.665 957.694C376.059 946.007 395.219 936.262 415.721 928.829C445.555 918.015 478.092 912.037 511.999 912.037C545.906 912.037 578.443 918.015 608.278 928.829C628.78 936.262 647.94 946.007 665.334 957.694C737.61 872.599 815.338 758.483 873.182 645.013C924.77 543.817 959.999 444.297 959.999 368.999C959.999 262.615 919.573 190.468 852.999 143.865H853Z" fill="#212121"/>
<path d="M377.312 969.2C384.353 985.354 403.158 992.741 419.312 985.7C435.466 978.66 442.853 959.854 435.812 943.7C396.53 854.14 355.536 738.541 326.239 626.071C301.771 532.135 285.539 440.611 285.539 368.998C285.539 258.524 307.554 184.369 343.808 137.24C384.171 84.7685 444.407 64.9992 512.001 64.9992C579.594 64.9992 639.831 84.7685 680.194 137.24C716.448 184.37 738.462 258.524 738.462 368.998C738.462 440.911 722.092 532.912 697.449 627.276C667.988 740.08 626.699 856.135 587.207 945.814C580.096 961.968 587.427 980.829 603.581 987.939C619.735 995.05 638.596 987.719 645.707 971.565C686.227 879.553 728.715 760.001 759.199 643.276C785.195 543.732 802.464 446.153 802.464 368.999C802.464 243.337 775.347 156.292 730.693 98.2406C676.36 27.6083 598.359 0.998047 512.001 0.998047C425.643 0.998047 347.642 27.6083 293.309 98.2406C248.655 156.292 221.538 243.337 221.538 368.999C221.538 445.837 238.667 542.939 264.489 642.071C294.689 758.008 336.895 877.051 377.313 969.201L377.312 969.2Z" fill="#212121"/>
<path d="M544 51.9881C544 34.3153 529.672 19.9873 511.999 19.9873C494.326 19.9873 479.998 34.3153 479.998 51.9881V935.893C479.998 953.566 494.326 967.894 511.999 967.894C529.672 967.894 544 953.566 544 935.893V51.9881Z" fill="#212121"/>
<path d="M320.001 1217H704C721.673 1217 736.001 1231.33 736.001 1249V1460.56C736.001 1481.61 727.41 1500.73 713.571 1514.57C699.729 1528.41 680.611 1537 659.556 1537H364.444C343.39 1537 324.271 1528.41 310.43 1514.57C296.591 1500.73 288 1481.61 288 1460.56V1249C288 1231.33 302.328 1217 320.001 1217H320.001ZM671.999 1281H352.002V1460.56C352.002 1463.95 353.412 1467.05 355.681 1469.32C357.951 1471.59 361.056 1473 364.445 1473H659.557C662.945 1473 666.051 1471.59 668.321 1469.32C670.59 1467.05 672 1463.95 672 1460.56V1281H671.999Z" fill="#212121"/>
<path d="M642.62 996.71C640.135 988.255 631.264 983.414 622.808 985.899C614.353 988.384 609.511 997.255 611.996 1005.71L685.664 1253.5C688.149 1261.95 697.02 1266.79 705.476 1264.31C713.931 1261.82 718.773 1252.95 716.288 1244.5L642.62 996.71Z" fill="#212121"/>
<path d="M412.004 1005.71C414.489 997.255 409.648 988.384 401.192 985.899C392.737 983.414 383.865 988.255 381.38 996.71L307.713 1244.5C305.228 1252.95 310.069 1261.82 318.524 1264.31C326.98 1266.79 335.851 1261.95 338.336 1253.5L412.004 1005.71Z" fill="#212121"/>
<path d="M528 961C528 952.165 520.835 945 512 945C503.164 945 495.999 952.165 495.999 961V1217C495.999 1225.84 503.164 1233 512 1233C520.835 1233 528 1225.84 528 1217V961Z" fill="#212121"/>
</svg>
