<?xml version="1.0" encoding="UTF-8"?>
<!DOCTYPE svg PUBLIC "-//W3C//DTD SVG 1.1//EN" "http://www.w3.org/Graphics/SVG/1.1/DTD/svg11.dtd">
<!-- Creator: CorelDRAW -->
<svg xmlns="http://www.w3.org/2000/svg" xml:space="preserve" width="2048px" height="2048px" style="shape-rendering:geometricPrecision; text-rendering:geometricPrecision; image-rendering:optimizeQuality; fill-rule:evenodd; clip-rule:evenodd"
viewBox="0 0 2048 2048"
 xmlns:xlink="http://www.w3.org/1999/xlink">
 <defs>
  <style type="text/css">
   <![CDATA[
    .fil1 {fill:none}
    .fil0 {fill:#212121;fill-rule:nonzero}
   ]]>
  </style>
 </defs>
 <g id="Layer_x0020_1">
  <metadata id="CorelCorpID_0Corel-Layer"/>
  <g id="_254131904">
   <g>
    <path id="_254132576" class="fil0" d="M282.668 1003.24l1483.17 0c17.6728,0 32.0008,14.328 32.0008,32.0008 0,3.62362 -0.603544,7.10788 -1.71378,10.3559l-40.9536 171.019c-4.74685,19.826 -13.7008,38.6138 -27.3319,52.2449 -13.7917,13.7917 -31.5756,22.3807 -53.6682,22.3807l-900.334 0c-5.72599,0 -11.0988,-1.50473 -15.75,-4.13977l-489.135 -222.847 -0.0484252 0.106299c-16.0819,-7.32638 -23.1792,-26.3055 -15.8528,-42.3874 5.4378,-11.9362 17.2937,-18.9201 29.6209,-18.7335zm1442.74 64.0016l-1296.1 0 351.187 159.998 893.671 0c3.38032,0 6.18189,-1.3937 8.41772,-3.62953 4.94292,-4.94292 8.45552,-12.861 10.5815,-21.7441l32.2382 -134.625z"/>
    <path id="_254132384" class="fil0" d="M642.662 1003.24l648.983 0 -93.8611 -147.249c-3.92126,-6.15237 -6.99567,-11.8063 -10.0063,-17.3445 -5.0752,-9.33544 -9.77954,-17.9835 -10.8685,-17.9043l-296.225 21.7429 -238.022 160.755zm707.171 64.0016l-811.531 0c-10.3099,0.034252 -20.4496,-4.90512 -26.6528,-14.0906 -9.89056,-14.6445 -6.03662,-34.5378 8.60788,-44.4284l17.9102 26.5181 -17.8748 -26.5004 330.355 -223.114c4.73268,-3.55158 10.5047,-5.83465 16.8437,-6.3l2.34213 31.9146 -2.25 -31.8756 304.826 -22.3748c41.8831,-3.07323 56.0646,23.0032 71.3693,51.1548 2.61378,4.80827 5.28426,9.71812 7.75512,13.5957l123.606 193.915c4.19646,5.413 6.69449,12.2067 6.69449,19.5851 0,17.6728 -14.328,32.0008 -32.0008,32.0008z"/>
   </g>
   <g>
    <path id="_254132168" class="fil0" d="M1061.78 870.029l75.5682 0c8.83583,0 16.0004,7.16457 16.0004,16.0004l0 59.3752c0,8.83583 -7.16457,16.0004 -16.0004,16.0004l-75.5682 0c-8.83583,0 -16.0004,-7.16457 -16.0004,-16.0004l0 -59.3752c0,-8.83583 7.16457,-16.0004 16.0004,-16.0004zm59.5678 32.0008l-43.5674 0 0 27.3744 43.5674 0 0 -27.3744z"/>
    <path id="_254131928" class="fil0" d="M1045.78 902.03l-43.5674 0 0 27.3744 43.5674 0 0 -27.3744zm-59.5678 -32.0008l75.5682 0c8.83583,0 16.0004,7.16457 16.0004,16.0004l0 59.3752c0,8.83583 -7.16457,16.0004 -16.0004,16.0004l-75.5682 0c-8.83583,0 -16.0004,-7.16457 -16.0004,-16.0004l0 -59.3752c0,-8.83583 7.16457,-16.0004 16.0004,-16.0004z"/>
    <path id="_254131664" class="fil0" d="M910.648 870.029l75.5682 0c8.83583,0 16.0004,7.16457 16.0004,16.0004l0 59.3752c0,8.83583 -7.16457,16.0004 -16.0004,16.0004l-75.5682 0c-8.83583,0 -16.0004,-7.16457 -16.0004,-16.0004l0 -59.3752c0,-8.83583 7.16457,-16.0004 16.0004,-16.0004zm59.5678 32.0008l-43.5674 0 0 27.3744 43.5674 0 0 -27.3744z"/>
   </g>
  </g>
 </g>
 <rect class="fil1" width="2048" height="2048"/>
</svg>
