<svg width="62" height="61" viewBox="0 0 62 61" fill="none" xmlns="http://www.w3.org/2000/svg">
<path d="M43.8023 21.093C42.5966 21.093 41.508 20.3712 41.0388 19.2606L33.7636 2.04109C32.7313 -0.4022 29.2688 -0.402138 28.2366 2.04119L20.9622 19.2605C20.493 20.3712 19.4044 21.093 18.1987 21.093H3.34249C0.655817 21.093 -0.676279 24.3533 1.2417 26.2347L12.3799 37.1602C13.0815 37.8485 13.4016 38.8368 13.2365 39.8058L10.3929 56.4963C9.97491 58.9495 12.5535 60.8157 14.7532 59.6518L29.597 51.7983C30.4747 51.3339 31.5253 51.3339 32.403 51.7983L47.2468 59.6518C49.4465 60.8157 52.0251 58.9495 51.6071 56.4963L48.7635 39.8058C48.5984 38.8368 48.9185 37.8485 49.6201 37.1602L60.7583 26.2347C62.6763 24.3533 61.3442 21.093 58.6575 21.093H43.8023Z" fill="black"/>
</svg>
