<svg width="1537" height="1618" viewBox="0 0 1537 1618" fill="none" xmlns="http://www.w3.org/2000/svg">
<path d="M751.79 1612.16C672.745 1568.98 604.895 1462.87 557.842 1317.57C512.698 1178.16 485.654 1001.18 485.654 809.002C485.654 616.824 512.698 439.843 557.842 300.435C605.348 153.73 674.051 46.969 754.074 4.60297L754.04 4.53684C764.581 -1.03915 776.827 -0.135607 786.217 5.84195C865.261 49.0184 933.113 155.131 980.166 300.436C1025.31 439.844 1052.35 616.824 1052.35 809.001C1052.35 1001.18 1025.31 1178.16 980.166 1317.56C932.659 1464.27 863.955 1571.03 783.933 1613.4L783.967 1613.46C773.426 1619.04 761.18 1618.14 751.79 1612.16V1612.16ZM618.593 1298.07C657.743 1418.97 710.14 1507.96 769.002 1547.95C827.864 1507.96 880.263 1418.97 919.414 1298.07C962.526 1164.93 988.352 994.812 988.352 809.002C988.352 623.192 962.526 453.068 919.414 319.937C880.263 199.035 827.863 110.044 769.002 70.057C710.141 110.044 657.743 199.035 618.593 319.936C575.482 453.068 549.656 623.191 549.656 809.003C549.656 994.814 575.482 1164.94 618.593 1298.07V1298.07Z" fill="#212121"/>
<path d="M769 552.509C821.585 552.509 869.025 573.098 902.087 620.854C928.758 659.38 945.001 715.443 945.001 792.509C945.001 872.076 929.868 937.008 903.955 983.029C873.96 1036.3 829.924 1065.49 777.312 1065.49C724.708 1065.49 675.245 1035.44 640.682 980.758C611.581 934.716 592.999 870.61 592.999 792.509C592.999 715.443 609.243 659.379 635.913 620.854C668.975 573.098 716.415 552.509 769 552.509H769ZM849.587 657.105C829.95 628.739 801.177 616.51 769 616.51C736.823 616.51 708.05 628.739 688.413 657.105C668.892 685.304 657.001 729.242 657.001 792.509C657.001 858.027 671.685 910.374 694.683 946.76C717.007 982.081 746.895 1001.49 777.311 1001.49C805.452 1001.49 830.123 983.892 848.205 951.779C868.908 915.008 880.999 860.85 880.999 792.509C880.999 729.242 869.108 685.303 849.587 657.104V657.105Z" fill="#212121"/>
<path d="M310.422 777C292.749 777 278.421 791.328 278.421 809.001C278.421 826.674 292.749 841.002 310.422 841.002H1249.02C1266.69 841.002 1281.02 826.674 1281.02 809.001C1281.02 791.328 1266.69 777 1249.02 777H310.422Z" fill="#212121"/>
<path d="M209.067 755.674H64.9979V862.326H209.067L256.977 814.417V803.584L209.067 755.673V755.674ZM32.9979 691.672H222.317V691.674C230.507 691.674 238.696 694.798 244.945 701.046L244.942 701.048L311.406 767.512C317.314 773.318 320.979 781.397 320.979 790.335V827.667H320.978C320.978 835.857 317.854 844.046 311.606 850.294L311.604 850.292L245.139 916.755C239.334 922.663 231.253 926.328 222.317 926.328H32.9979C15.3251 926.328 0.99707 912 0.99707 894.327V723.673C0.99707 706 15.3251 691.672 32.9979 691.672V691.672Z" fill="#212121"/>
<path d="M1315.68 691.673H1505C1522.67 691.673 1537 706.001 1537 723.674V894.328C1537 912.001 1522.67 926.329 1505 926.329H1315.68C1306.74 926.329 1298.66 922.664 1292.86 916.756L1226.39 850.293L1226.39 850.295C1220.14 844.047 1217.02 835.857 1217.02 827.667H1217.02V790.335C1217.02 781.398 1220.68 773.319 1226.59 767.513L1293.05 701.048L1293.05 701.046C1299.3 694.798 1307.49 691.674 1315.68 691.674V691.673L1315.68 691.673ZM1473 755.675H1328.93L1281.02 803.585V814.418L1328.93 862.327H1473V755.675V755.675Z" fill="#212121"/>
</svg>
