<svg width="24" height="24" viewBox="0 0 24 24" fill="none" xmlns="http://www.w3.org/2000/svg">
<path d="M2 17V9.25694C2 8.08307 2 7.49613 2.23873 7.0524C2.42439 6.70733 2.70733 6.42439 3.0524 6.23873C3.49613 6 4.08307 6 5.25694 6C5.91294 6 6.24094 6 6.53752 5.90538C6.77007 5.83119 6.98708 5.71505 7.17781 5.56271C7.42105 5.36842 7.60299 5.09551 7.96688 4.54969L8 4.5C8.39637 3.90544 8.59456 3.60816 8.86549 3.40367C9.03094 3.27879 9.2148 3.18039 9.41048 3.112C9.73092 3 10.0882 3 10.8028 3H12H13.1972C13.9118 3 14.2691 3 14.5895 3.112C14.7852 3.18039 14.9691 3.27879 15.1345 3.40367C15.4054 3.60816 15.6036 3.90544 16 4.5L16.0331 4.54969L16.0331 4.54969C16.397 5.09551 16.5789 5.36842 16.8222 5.56271C17.0129 5.71505 17.2299 5.83119 17.4625 5.90538C17.7591 6 18.0871 6 18.7431 6C19.9169 6 20.5039 6 20.9476 6.23873C21.2927 6.42439 21.5756 6.70733 21.7613 7.0524C22 7.49613 22 8.08307 22 9.25694V17C22 18.8856 22 19.8284 21.4142 20.4142C20.8284 21 19.8856 21 18 21H6C4.11438 21 3.17157 21 2.58579 20.4142C2 19.8284 2 18.8856 2 17Z" stroke="#333333" stroke-width="2"/>
<circle cx="12" cy="13" r="4" stroke="#333333" stroke-width="2"/>
<path fill-rule="evenodd" clip-rule="evenodd" d="M4 9C4 8.44772 4.44772 8 5 8H6C6.55228 8 7 8.44772 7 9V9C7 9.55228 6.55228 10 6 10H5C4.44772 10 4 9.55228 4 9V9Z" fill="#333333"/>
</svg>
