<svg width="24" height="24" viewBox="0 0 24 24" fill="none" xmlns="http://www.w3.org/2000/svg">
<path d="M5 10H19C20.6569 10 22 11.3431 22 13V18C22 18.5523 21.5523 19 21 19H3C2.44772 19 2 18.5523 2 18V13C2 11.3431 3.34315 10 5 10Z" stroke="#333333" stroke-width="2"/>
<mask id="path-2-inside-1_8_10" fill="white">
<path d="M5 20C5 19.0572 5 18.5858 5.29289 18.2929C5.58579 18 6.05719 18 7 18V18C7.94281 18 8.41421 18 8.70711 18.2929C9 18.5858 9 19.0572 9 20V20C9 20.9428 9 21.4142 8.70711 21.7071C8.41421 22 7.94281 22 7 22V22C6.05719 22 5.58579 22 5.29289 21.7071C5 21.4142 5 20.9428 5 20V20Z"/>
</mask>
<path d="M5 20C5 19.0572 5 18.5858 5.29289 18.2929C5.58579 18 6.05719 18 7 18V18C7.94281 18 8.41421 18 8.70711 18.2929C9 18.5858 9 19.0572 9 20V20C9 20.9428 9 21.4142 8.70711 21.7071C8.41421 22 7.94281 22 7 22V22C6.05719 22 5.58579 22 5.29289 21.7071C5 21.4142 5 20.9428 5 20V20Z" fill="#333333" stroke="#333333" stroke-width="4" mask="url(#path-2-inside-1_8_10)"/>
<mask id="path-3-inside-2_8_10" fill="white">
<path d="M15 20C15 19.0572 15 18.5858 15.2929 18.2929C15.5858 18 16.0572 18 17 18V18C17.9428 18 18.4142 18 18.7071 18.2929C19 18.5858 19 19.0572 19 20V20C19 20.9428 19 21.4142 18.7071 21.7071C18.4142 22 17.9428 22 17 22V22C16.0572 22 15.5858 22 15.2929 21.7071C15 21.4142 15 20.9428 15 20V20Z"/>
</mask>
<path d="M15 20C15 19.0572 15 18.5858 15.2929 18.2929C15.5858 18 16.0572 18 17 18V18C17.9428 18 18.4142 18 18.7071 18.2929C19 18.5858 19 19.0572 19 20V20C19 20.9428 19 21.4142 18.7071 21.7071C18.4142 22 17.9428 22 17 22V22C16.0572 22 15.5858 22 15.2929 21.7071C15 21.4142 15 20.9428 15 20V20Z" fill="#333333" stroke="#333333" stroke-width="4" mask="url(#path-3-inside-2_8_10)"/>
<path d="M4 10L5.58555 4.45056C5.83087 3.59196 6.61564 3 7.5086 3H16.4914C17.3844 3 18.1691 3.59195 18.4144 4.45056L20 10" stroke="#333333" stroke-width="2"/>
<rect x="5" y="14" width="4" height="2" rx="1" fill="#333333"/>
<rect x="15" y="14" width="4" height="2" rx="1" fill="#333333"/>
</svg>
