<svg width="50" height="70" viewBox="0 0 50 70" fill="none" xmlns="http://www.w3.org/2000/svg">
<path d="M25 4.59688e-06C21.7843 -0.00196577 18.5998 0.629505 15.6282 1.85836C12.6566 3.08721 9.95611 4.88938 7.68103 7.16195C5.40596 9.43452 3.60082 12.133 2.36869 15.1032C1.13656 18.0735 0.501575 21.2573 0.5 24.473C0.5 36.4 7.264 52.291 25 70C42.736 52.291 49.5 36.4 49.5 24.473C49.4984 21.2573 48.8634 18.0735 47.6313 15.1032C46.3992 12.133 44.594 9.43452 42.319 7.16195C40.0439 4.88938 37.3434 3.08721 34.3718 1.85836C31.4002 0.629505 28.2157 -0.00196577 25 4.59688e-06V4.59688e-06ZM25 30.754C23.1933 30.7522 21.4276 30.2148 19.9262 29.2098C18.4248 28.2047 17.2551 26.7771 16.5649 25.1073C15.8748 23.4376 15.6951 21.6008 16.0487 19.829C16.4022 18.0571 17.2732 16.4299 18.5513 15.153C19.8295 13.8761 21.4576 13.0067 23.2298 12.6549C25.0019 12.3031 26.8386 12.4846 28.5077 13.1764C30.1767 13.8682 31.6032 15.0393 32.6068 16.5417C33.6104 18.0441 34.146 19.8103 34.146 21.617C34.1441 24.0413 33.1797 26.3656 31.4646 28.079C29.7495 29.7923 27.4243 30.7545 25 30.754V30.754Z" fill="black"/>
</svg>
