<svg width="24" height="24" viewBox="0 0 24 24" fill="none" xmlns="http://www.w3.org/2000/svg">
<path fill-rule="evenodd" clip-rule="evenodd" d="M5.44151 1C4.15022 1 3.0038 1.82629 2.59546 3.05132L1.35782 6.76423C1.06746 7.63532 1.192 8.59141 1.69583 9.35904L9.49195 21.2372C10.6768 23.0423 13.3232 23.0423 14.508 21.2372L22.3041 9.35904C22.808 8.59141 22.9325 7.63532 22.6422 6.76423L22.0355 4.94418L20.5447 6.79655L20.7448 7.39668C20.8416 7.68705 20.8001 8.00574 20.6321 8.26162L12.836 20.1397C12.4411 20.7415 11.5589 20.7415 11.164 20.1397L3.36786 8.26162C3.19992 8.00574 3.1584 7.68705 3.25519 7.39668L4.49283 3.68377C4.62894 3.27543 5.01108 3 5.44151 3H7.76392C8.14269 3 8.48896 3.214 8.65835 3.55279L10.2111 6.65836C10.9482 8.13245 13.0518 8.13246 13.7888 6.65836L15.3416 3.55279C15.511 3.214 15.8573 3 16.2361 3H18.5585C18.9889 3 19.371 3.27543 19.5072 3.68377L20.0842 5.41504L21.5 3.5L21.4045 3.05132C20.9962 1.82629 19.8498 1 18.5585 1H16.2361C15.0997 1 14.061 1.64201 13.5528 2.65836L12 5.76393L10.4472 2.65836C9.93903 1.64201 8.90024 1 7.76392 1H5.44151Z" fill="#333333"/>
<path fill-rule="evenodd" clip-rule="evenodd" d="M23 1.87033C23 1.95425 22.9713 2.03564 22.9187 2.10102L13.9814 13.2064C12.9554 14.419 11.162 14.6216 9.89125 13.6686L8.12293 12.3423C7.71234 12.0344 7.60153 11.4656 7.86652 11.026L8.4374 10.0791C8.74312 9.57195 9.42009 9.44007 9.89381 9.79536L11.5 11C11.9236 11.3177 12.5214 11.2501 12.8634 10.8459L22.3757 1.6064C22.609 1.3798 23 1.54511 23 1.87033Z" fill="#ED2F2F"/>
</svg>
