<svg width="24" height="24" viewBox="0 0 24 24" fill="none" xmlns="http://www.w3.org/2000/svg">
<path d="M4.51472 4.92879C4.1242 4.53826 4.1242 3.9051 4.51472 3.51457C4.90525 3.12405 5.53841 3.12405 5.92894 3.51457L21.4853 19.0709C21.8758 19.4614 21.8758 20.0946 21.4853 20.4851C21.0948 20.8757 20.4616 20.8757 20.0711 20.4851L4.51472 4.92879Z" fill="#333333"/>
<path fill-rule="evenodd" clip-rule="evenodd" d="M5.5564 8.7782H2C1.44772 8.7782 1 9.22591 1 9.7782V13.7782C1 14.3305 1.44772 14.7782 2 14.7782L11.5564 14.7782L9.5564 12.7782L6 12.7782V10.7782L7.5564 10.7782L5.5564 8.7782ZM14 12.7782L21 12.7782V10.7782L11 10.7782L9.29285 8.7782H9.85353H11H22C22.5523 8.7782 23 9.22591 23 9.7782V13.7782C23 14.3305 22.5523 14.7782 22 14.7782L16 14.7782H15.5L13.5 12.7782L14 12.7782Z" fill="#333333"/>
<rect x="17" y="10.7782" width="2" height="3" fill="#333333"/>
<path fill-rule="evenodd" clip-rule="evenodd" d="M16 3C15.4477 3 15 3.44772 15 4C15 4.55228 15.4477 5 16 5H17C18.6343 5 20.0588 6.11226 20.4552 7.69775L20.7276 8.78732C20.8616 9.32312 20.5358 9.86605 20 10V10C19.4642 10.1339 18.9213 9.80819 18.7873 9.27239L18.5149 8.18282C18.3411 7.48767 17.7165 7 17 7H16C14.3431 7 13 5.65685 13 4C13 2.34315 14.3431 1 16 1H17C17.5523 1 18 1.44772 18 2V2C18 2.55228 17.5523 3 17 3H16Z" fill="#333333"/>
<path fill-rule="evenodd" clip-rule="evenodd" d="M23 2C23 2.55228 22.5523 3 22 3H21C20.4477 3 20 2.55228 20 2V2C20 1.44772 20.4477 1 21 1H22C22.5523 1 23 1.44772 23 2V2Z" fill="#333333"/>
</svg>
