<svg width="24" height="24" viewBox="0 0 24 24" fill="none" xmlns="http://www.w3.org/2000/svg">
<path fill-rule="evenodd" clip-rule="evenodd" d="M7 5C7 6.10457 6.10457 7 5 7C3.89543 7 3 6.10457 3 5C3 3.89543 3.89543 3 5 3C6.10457 3 7 3.89543 7 5ZM7.62312 8.01989C8.46669 7.28653 9 6.20555 9 5C9 2.79086 7.20914 1 5 1C2.79086 1 1 2.79086 1 5C1 6.22057 1.54669 7.31345 2.40856 8.04714L4.62475 10.5724C4.82371 10.7991 5.17659 10.7994 5.37587 10.573L7.62312 8.01989Z" fill="#333333"/>
<path fill-rule="evenodd" clip-rule="evenodd" d="M20 9H17C16.4477 9 16 8.55228 16 8V8C16 7.44772 16.4477 7 17 7H20C21.6569 7 23 8.34315 23 10V13C23 14.6569 21.6569 16 20 16H4C3.44772 16 3 16.4477 3 17V20C3 20.5523 3.44772 21 4 21H22C22.5523 21 23 21.4477 23 22V22C23 22.5523 22.5523 23 22 23H4C2.34315 23 1 21.6569 1 20V17C1 15.3431 2.34315 14 4 14H20C20.5523 14 21 13.5523 21 13V10C21 9.44772 20.5523 9 20 9Z" fill="#333333"/>
<rect x="10.5" y="7.5" width="3" height="1" rx="0.5" fill="#D9D9D9" stroke="#333333"/>
</svg>
