<svg width="24" height="24" viewBox="0 0 24 24" fill="none" xmlns="http://www.w3.org/2000/svg">
<rect x="5" y="13" width="4" height="9" rx="2" stroke="#333333" stroke-width="2"/>
<rect x="15" y="13" width="4" height="9" rx="2" stroke="#333333" stroke-width="2"/>
<rect x="6" y="9" width="2" height="4" fill="#333333"/>
<rect x="16" y="9" width="2" height="4" fill="#333333"/>
<path d="M10 6C10 8.4289 8.46016 10 7 10C5.53984 10 4 8.4289 4 6C4 3.5711 5.53984 2 7 2C8.46016 2 10 3.5711 10 6Z" stroke="#333333" stroke-width="2"/>
<rect x="13" y="1" width="2" height="6" rx="1" fill="#333333"/>
<rect x="16" y="1" width="2" height="6" rx="1" fill="#333333"/>
<rect x="19" y="1" width="2" height="6" rx="1" fill="#333333"/>
<path d="M17 9C17.7112 9 19 8.09638 19 6H21C21 8.76142 19.2091 11 17 11C14.7909 11 13 8.76142 13 6H15C15 8.09638 16.2888 9 17 9Z" fill="#333333"/>
</svg>
