<svg width="24" height="24" viewBox="0 0 24 24" fill="none" xmlns="http://www.w3.org/2000/svg">
<path d="M18.2929 7.29289L18.0369 7.5489L18.0041 7.90946L17.1695 17.0905C17.1226 17.6056 16.6908 18 16.1736 18H7.82643C7.30923 18 6.87736 17.6056 6.83054 17.0905L6.54135 13.9095L6.14553 9.55543L5.99589 7.90946L5.96311 7.5489L5.70711 7.29289L4 5.58579L4 2L20 2V5.17157C20 5.43679 19.8946 5.69114 19.7071 5.87868L18.2929 7.29289Z" stroke="#333333" stroke-width="2"/>
<path d="M9 17V20C9 21.1046 9.89543 22 11 22H13C14.1046 22 15 21.1046 15 20V17" stroke="#333333" stroke-width="2"/>
<circle cx="12" cy="11" r="3" fill="#333333"/>
</svg>
