<svg width="24" height="24" viewBox="0 0 24 24" fill="none" xmlns="http://www.w3.org/2000/svg">
<mask id="path-1-inside-1_8_26" fill="white">
<path fill-rule="evenodd" clip-rule="evenodd" d="M14.1213 1.39339C14.5118 1.00286 15.145 1.00286 15.5355 1.39339L17.6568 3.51471C18.0473 3.90523 18.0473 4.5384 17.6568 4.92892V4.92892C17.2663 5.31944 17.2663 5.95261 17.6568 6.34313C18.0473 6.73366 18.6805 6.73366 19.071 6.34313V6.34313C19.4615 5.95261 20.0947 5.95261 20.4852 6.34313L22.6065 8.46445C22.9971 8.85498 22.9971 9.48814 22.6065 9.87867L9.87862 22.6066C9.4881 22.9971 8.85493 22.9971 8.46441 22.6066L6.34309 20.4853C5.95256 20.0947 5.95256 19.4616 6.34309 19.0711V19.0711C6.73361 18.6805 6.73361 18.0474 6.34309 17.6568C5.95256 17.2663 5.3194 17.2663 4.92887 17.6568V17.6568C4.53835 18.0474 3.90519 18.0474 3.51466 17.6568L1.39334 15.5355C1.00282 15.145 1.00282 14.5118 1.39334 14.1213L14.1213 1.39339Z"/>
</mask>
<path d="M19.071 2.10049L16.9497 -0.0208275L14.1213 2.8076L16.2426 4.92892L19.071 2.10049ZM19.071 4.92892C19.4615 5.31944 19.4615 5.95261 19.071 6.34313L16.2426 3.51471C15.071 4.68628 15.071 6.58577 16.2426 7.75735L19.071 4.92892ZM17.6568 4.92892C18.0473 4.5384 18.6805 4.5384 19.071 4.92892L16.2426 7.75735C17.4142 8.92892 19.3137 8.92892 20.4852 7.75735L17.6568 4.92892ZM24.0208 7.05024L21.8994 4.92892L19.071 7.75735L21.1923 9.87867L24.0208 7.05024ZM11.2928 24.0208L24.0208 11.2929L21.1923 8.46445L8.46441 21.1924L11.2928 24.0208ZM4.92887 21.8995L7.05019 24.0208L9.87862 21.1924L7.7573 19.0711L4.92887 21.8995ZM4.92887 19.0711C4.53835 18.6805 4.53835 18.0474 4.92887 17.6568L7.7573 20.4853C8.92887 19.3137 8.92887 17.4142 7.7573 16.2426L4.92887 19.0711ZM6.34309 19.0711C5.95256 19.4616 5.3194 19.4616 4.92887 19.0711L7.7573 16.2426C6.58573 15.0711 4.68623 15.0711 3.51466 16.2426L6.34309 19.0711ZM-0.020873 16.9497L2.10045 19.0711L4.92887 16.2426L2.80755 14.1213L-0.020873 16.9497ZM12.707 -0.0208275L-0.0208728 12.7071L2.80755 15.5355L15.5355 2.8076L12.707 -0.0208275ZM2.80755 14.1213C3.19808 14.5118 3.19808 15.145 2.80755 15.5355L-0.0208728 12.7071C-1.19245 13.8787 -1.19245 15.7782 -0.020873 16.9497L2.80755 14.1213ZM7.7573 19.0711C8.14783 19.4616 8.14783 20.0947 7.7573 20.4853L4.92887 17.6568C3.7573 18.8284 3.7573 20.7279 4.92887 21.8995L7.7573 19.0711ZM8.46441 21.1924C8.85493 20.8019 9.4881 20.8019 9.87862 21.1924L7.05019 24.0208C8.22177 25.1924 10.1213 25.1924 11.2928 24.0208L8.46441 21.1924ZM21.1923 9.87867C20.8018 9.48814 20.8018 8.85498 21.1923 8.46445L24.0208 11.2929C25.1923 10.1213 25.1923 8.22181 24.0208 7.05024L21.1923 9.87867ZM3.51466 16.2426C3.90519 15.8521 4.53835 15.8521 4.92887 16.2426L2.10045 19.0711C3.27202 20.2426 5.17152 20.2426 6.34309 19.0711L3.51466 16.2426ZM16.9497 -0.0208275C15.7781 -1.1924 13.8786 -1.1924 12.707 -0.0208275L15.5355 2.8076C15.145 3.19812 14.5118 3.19812 14.1213 2.8076L16.9497 -0.0208275ZM20.4852 7.75735C20.0947 8.14787 19.4615 8.14787 19.071 7.75735L21.8994 4.92892C20.7279 3.75735 18.8284 3.75735 17.6568 4.92892L20.4852 7.75735ZM16.2426 4.92892C15.8521 4.5384 15.8521 3.90523 16.2426 3.51471L19.071 6.34313C20.2426 5.17156 20.2426 3.27207 19.071 2.10049L16.2426 4.92892Z" fill="#333333" mask="url(#path-1-inside-1_8_26)"/>
<rect x="11.2927" y="5.63599" width="3" height="1" rx="0.5" transform="rotate(45 11.2927 5.63599)" fill="#333333"/>
<rect x="14.1213" y="8.46448" width="2" height="1" rx="0.5" transform="rotate(45 14.1213 8.46448)" fill="#333333"/>
<rect x="16.2427" y="10.5858" width="3" height="1" rx="0.5" transform="rotate(45 16.2427 10.5858)" fill="#333333"/>
<rect x="11.2927" y="9.87866" width="1" height="6" rx="0.5" transform="rotate(45 11.2927 9.87866)" fill="#333333"/>
<rect x="12.707" y="12.7072" width="1" height="5" rx="0.5" transform="rotate(45 12.707 12.7072)" fill="#333333"/>
</svg>
