<svg width="24" height="24" viewBox="0 0 24 24" fill="none" xmlns="http://www.w3.org/2000/svg">
<path fill-rule="evenodd" clip-rule="evenodd" d="M11 19.5V10C11 9.44772 11.4477 9 12 9C12.5523 9 13 9.44772 13 10V19.5C13 21.433 11.433 23 9.5 23C7.567 23 6 21.433 6 19.5V19C6 18.4477 6.44772 18 7 18C7.55228 18 8 18.4477 8 19V19.5C8 20.3284 8.67157 21 9.5 21C10.3284 21 11 20.3284 11 19.5Z" fill="#333333"/>
<path fill-rule="evenodd" clip-rule="evenodd" d="M12 3C8.20635 3 4.81057 5.35327 3.47852 8.90543L3.2875 9.41479C3.09358 9.93192 2.51717 10.1939 2.00005 10C1.48293 9.80608 1.22092 9.22967 1.41484 8.71255L1.60586 8.20318C3.23064 3.87042 7.37266 1 12 1C16.6274 1 20.7695 3.87042 22.3942 8.20318L22.5853 8.71255C22.7792 9.22967 22.5172 9.80608 22 10C21.4829 10.1939 20.9065 9.93192 20.7126 9.41479L20.5216 8.90543C19.1895 5.35327 15.7938 3 12 3Z" fill="#333333"/>
<path d="M17.2835 7.35435L18.1136 9.72584C18.296 10.2471 18.0213 10.8176 17.5 11.0001C16.9788 11.1825 16.4083 10.9078 16.2258 10.3865L15.3958 8.01505C14.7222 6.09043 13.4381 4.50553 11.8061 3.44665C11.1506 3.02139 11.0957 1.96097 11.7852 1.5935C12.0548 1.44982 12.3802 1.44982 12.6409 1.60906C14.7567 2.90138 16.4253 4.90238 17.2835 7.35435Z" fill="#333333"/>
<path d="M3 8V8C8.9277 9.31727 15.0723 9.31727 21 8V8" stroke="#333333" stroke-width="2"/>
<path d="M9.31811 7.35147L8.22835 10.0758C8.02323 10.5886 7.44126 10.838 6.92847 10.6329C6.41569 10.4278 6.16628 9.84579 6.3714 9.33301L7.46117 6.60867C8.38263 4.30506 10.0202 2.43509 12.057 1.21323C12.2887 1.07423 12.5735 1.063 12.8214 1.17065C13.5582 1.4907 13.5354 2.63576 12.8589 3.06902C11.2945 4.07089 10.039 5.54931 9.31811 7.35147Z" fill="#333333"/>
</svg>
